<?xml version="1.0" encoding="UTF-8" standalone="no"?>
<svg
   width="1280"
   height="720"
   overflow="hidden"
   version="1.1"
   id="svg7085"
   sodipodi:docname="p2.svg"
   inkscape:version="1.1 (c68e22c387, 2021-05-23)"
   xmlns:inkscape="http://www.inkscape.org/namespaces/inkscape"
   xmlns:sodipodi="http://sodipodi.sourceforge.net/DTD/sodipodi-0.dtd"
   xmlns="http://www.w3.org/2000/svg"
   xmlns:svg="http://www.w3.org/2000/svg">
  <sodipodi:namedview
     id="namedview7087"
     pagecolor="#ffffff"
     bordercolor="#666666"
     borderopacity="1.0"
     inkscape:pageshadow="2"
     inkscape:pageopacity="0.0"
     inkscape:pagecheckerboard="0"
     showgrid="false"
     inkscape:zoom="0.8609375"
     inkscape:cx="640.58076"
     inkscape:cy="360.0726"
     inkscape:window-width="1368"
     inkscape:window-height="890"
     inkscape:window-x="-6"
     inkscape:window-y="-6"
     inkscape:window-maximized="1"
     inkscape:current-layer="svg7085" />
  <defs
     id="defs6969">
    <clipPath
       id="clip0">
      <rect
         x="0"
         y="0"
         width="1280"
         height="720"
         id="rect6960" />
    </clipPath>
    <clipPath
       id="clip1">
      <rect
         x="365"
         y="108"
         width="184"
         height="270"
         id="rect6963" />
    </clipPath>
    <clipPath
       id="clip2">
      <rect
         x="365"
         y="108"
         width="184"
         height="270"
         id="rect6966" />
    </clipPath>
  </defs>
  <g
     clip-path="url(#clip0)"
     id="g7083">
    <path
       id="rect6971"
       style="fill:#ffffff"
       d="M 0,0 H 1280 V 720 H 0 Z" />
    <path
       d="M0.000209974 67.9997 548.572 67.9997 548.572 184.8 0.000209974 184.8Z"
       fill="#A9D18E"
       fill-rule="evenodd"
       id="path6973" />
    <path
       d="M548.572 67.9997 1280 67.9997 1280 184.8 548.572 184.8Z"
       fill="#FF8B99"
       fill-rule="evenodd"
       id="path6975" />
    <path
       d="M0.000209974 184.8 182.857 184.8 182.857 301.6 0.000209974 301.6Z"
       fill="#DBDBDB"
       fill-rule="evenodd"
       id="path6977" />
    <path
       d="M182.857 184.8 365.714 184.8 365.714 301.6 182.857 301.6Z"
       fill="#BFBFBF"
       fill-rule="evenodd"
       id="path6979" />
    <path
       d="M365.714 184.8 548.572 184.8 548.572 301.6 365.714 301.6Z"
       fill="#DBDBDB"
       fill-rule="evenodd"
       id="path6981" />
    <path
       d="M548.572 184.8 731.429 184.8 731.429 301.6 548.572 301.6Z"
       fill="#BFBFBF"
       fill-rule="evenodd"
       id="path6983" />
    <path
       d="M731.429 184.8 914.286 184.8 914.286 301.6 731.429 301.6Z"
       fill="#DBDBDB"
       fill-rule="evenodd"
       id="path6985" />
    <path
       d="M914.286 184.8 1097.14 184.8 1097.14 301.6 914.286 301.6Z"
       fill="#BFBFBF"
       fill-rule="evenodd"
       id="path6987" />
    <path
       d="M1097.14 184.8 1280 184.8 1280 301.6 1097.14 301.6Z"
       fill="#DBDBDB"
       fill-rule="evenodd"
       id="path6989" />
    <path
       d="M0.000209974 301.6 1280 301.6 1280 418.4 0.000209974 418.4Z"
       fill="#FFFFFF"
       fill-rule="evenodd"
       id="path6991" />
    <path
       d="M0.000209974 418.4 731.429 418.4 731.429 535.2 0.000209974 535.2Z"
       fill="#A9D18E"
       fill-rule="evenodd"
       id="path6993" />
    <path
       d="M731.429 418.4 1280 418.4 1280 535.2 731.429 535.2Z"
       fill="#FF8B99"
       fill-rule="evenodd"
       id="path6995" />
    <path
       d="M0.000209974 535.2 182.857 535.2 182.857 652 0.000209974 652Z"
       fill="#DBDBDB"
       fill-rule="evenodd"
       id="path6997" />
    <path
       d="M182.857 535.2 365.714 535.2 365.714 652 182.857 652Z"
       fill="#BFBFBF"
       fill-rule="evenodd"
       id="path6999" />
    <path
       d="M365.714 535.2 548.572 535.2 548.572 652 365.714 652Z"
       fill="#DBDBDB"
       fill-rule="evenodd"
       id="path7001" />
    <path
       d="M548.572 535.2 731.429 535.2 731.429 652 548.572 652Z"
       fill="#BFBFBF"
       fill-rule="evenodd"
       id="path7003" />
    <path
       d="M731.429 535.2 914.286 535.2 914.286 652 731.429 652Z"
       fill="#DBDBDB"
       fill-rule="evenodd"
       id="path7005" />
    <path
       d="M914.286 535.2 1097.14 535.2 1097.14 652 914.286 652Z"
       fill="#BFBFBF"
       fill-rule="evenodd"
       id="path7007" />
    <path
       d="M1097.14 535.2 1280 535.2 1280 652 1097.14 652Z"
       fill="#DBDBDB"
       fill-rule="evenodd"
       id="path7009" />
    <path
       d="M182.857 182.8 182.857 302.267"
       stroke="#FFFFFF"
       stroke-width="1.33333"
       stroke-linejoin="round"
       stroke-miterlimit="10"
       fill="none"
       fill-rule="evenodd"
       id="path7011" />
    <path
       d="M365.714 182.8 365.714 302.267"
       stroke="#FFFFFF"
       stroke-width="1.33333"
       stroke-linejoin="round"
       stroke-miterlimit="10"
       fill="none"
       fill-rule="evenodd"
       id="path7013" />
    <path
       d="M548.572 67.333 548.572 302.267"
       stroke="#FFFFFF"
       stroke-width="1.33333"
       stroke-linejoin="round"
       stroke-miterlimit="10"
       fill="none"
       fill-rule="evenodd"
       id="path7015" />
    <path
       d="M548.572 534.533 548.572 652.667"
       stroke="#FFFFFF"
       stroke-width="1.33333"
       stroke-linejoin="round"
       stroke-miterlimit="10"
       fill="none"
       fill-rule="evenodd"
       id="path7017" />
    <path
       d="M731.429 182.8 731.429 302.267"
       stroke="#FFFFFF"
       stroke-width="1.33333"
       stroke-linejoin="round"
       stroke-miterlimit="10"
       fill="none"
       fill-rule="evenodd"
       id="path7019" />
    <path
       d="M731.429 417.733 731.429 652.667"
       stroke="#FFFFFF"
       stroke-width="1.33333"
       stroke-linejoin="round"
       stroke-miterlimit="10"
       fill="none"
       fill-rule="evenodd"
       id="path7021" />
    <path
       d="M914.286 182.8 914.286 302.267"
       stroke="#FFFFFF"
       stroke-width="1.33333"
       stroke-linejoin="round"
       stroke-miterlimit="10"
       fill="none"
       fill-rule="evenodd"
       id="path7023" />
    <path
       d="M914.286 534.533 914.286 652.667"
       stroke="#FFFFFF"
       stroke-width="1.33333"
       stroke-linejoin="round"
       stroke-miterlimit="10"
       fill="none"
       fill-rule="evenodd"
       id="path7025" />
    <path
       d="M1097.14 182.8 1097.14 302.267"
       stroke="#FFFFFF"
       stroke-width="1.33333"
       stroke-linejoin="round"
       stroke-miterlimit="10"
       fill="none"
       fill-rule="evenodd"
       id="path7027" />
    <path
       d="M1097.14 534.533 1097.14 652.667"
       stroke="#FFFFFF"
       stroke-width="1.33333"
       stroke-linejoin="round"
       stroke-miterlimit="10"
       fill="none"
       fill-rule="evenodd"
       id="path7029" />
    <path
       d="M-0.666457 184.8 1280.67 184.8"
       stroke="#FFFFFF"
       stroke-width="4"
       stroke-linejoin="round"
       stroke-miterlimit="10"
       fill="none"
       fill-rule="evenodd"
       id="path7031" />
    <path
       d="M-0.666457 301.6 1280.67 301.6"
       stroke="#FFFFFF"
       stroke-width="1.33333"
       stroke-linejoin="round"
       stroke-miterlimit="10"
       fill="none"
       fill-rule="evenodd"
       id="path7033" />
    <path
       d="M-0.666457 418.4 1280.67 418.4"
       stroke="#FFFFFF"
       stroke-width="1.33333"
       stroke-linejoin="round"
       stroke-miterlimit="10"
       fill="none"
       fill-rule="evenodd"
       id="path7035" />
    <path
       d="M-0.666457 535.2 182.857 535.2"
       stroke="#FFFFFF"
       stroke-width="1.33333"
       stroke-linejoin="round"
       stroke-miterlimit="10"
       fill="none"
       fill-rule="evenodd"
       id="path7037" />
    <path
       d="M365.714 535.2 1280.67 535.2"
       stroke="#FFFFFF"
       stroke-width="1.33333"
       stroke-linejoin="round"
       stroke-miterlimit="10"
       fill="none"
       fill-rule="evenodd"
       id="path7039" />
    <path
       d="M0.000209974 67.333 0.000209974 652.667"
       stroke="#FFFFFF"
       stroke-width="1.33333"
       stroke-linejoin="round"
       stroke-miterlimit="10"
       fill="none"
       fill-rule="evenodd"
       id="path7041" />
    <path
       d="M1280 67.333 1280 652.667"
       stroke="#FFFFFF"
       stroke-width="1.33333"
       stroke-linejoin="round"
       stroke-miterlimit="10"
       fill="none"
       fill-rule="evenodd"
       id="path7043" />
    <path
       d="M-0.666457 67.9997 1280.67 67.9997"
       stroke="#FFFFFF"
       stroke-width="1.33333"
       stroke-linejoin="round"
       stroke-miterlimit="10"
       fill="none"
       fill-rule="evenodd"
       id="path7045" />
    <path
       d="M-0.666457 652 182.857 652"
       stroke="#FFFFFF"
       stroke-width="1.33333"
       stroke-linejoin="round"
       stroke-miterlimit="10"
       fill="none"
       fill-rule="evenodd"
       id="path7047" />
    <path
       d="M365.714 652 1280.67 652"
       stroke="#FFFFFF"
       stroke-width="1.33333"
       stroke-linejoin="round"
       stroke-miterlimit="10"
       fill="none"
       fill-rule="evenodd"
       id="path7049" />
    <g
       aria-label="LegalIllegalMin Val"
       transform="translate(226.369 137)"
       id="text7055"
       style="font-weight:700;font-size:32px;font-family:'Source Code Pro', 'Source Code Pro_MSFontService', sans-serif;fill:#548235">
      <path
         d="m 3.424,0 v -20.864 h 4.704 v 16.896 h 9.28 V 0 Z"
         style="font-weight:700;font-size:32px;font-family:'Source Code Pro', 'Source Code Pro_MSFontService', sans-serif;fill:#548235"
         id="path11384" />
      <path
         d="m 29.759951,0.384 q -1.856,0 -3.488,-0.544 -1.6,-0.576 -2.784,-1.632 -1.184,-1.056 -1.856,-2.592 -0.672,-1.568 -0.672,-3.552 0,-1.952 0.672,-3.488 0.704,-1.568 1.856,-2.624 1.152,-1.088 2.624,-1.632 1.504,-0.576 3.104,-0.576 1.824,0 3.232,0.576 1.408,0.576 2.336,1.6 0.96,1.024 1.44,2.432 0.48,1.376 0.48,3.008 0,0.64 -0.096,1.248 -0.064,0.576 -0.128,0.864 h -10.816 q 0.352,1.728 1.568,2.528 1.216,0.8 3.168,0.8 1.088,0 2.048,-0.288 0.992,-0.288 2.048,-0.832 l 1.568,2.848 q -1.376,0.864 -3.04,1.376 -1.664,0.48 -3.264,0.48 z m -0.384,-13.056 q -1.408,0 -2.368,0.736 -0.928,0.736 -1.28,2.24 h 6.784 q -0.352,-2.976 -3.136,-2.976 z"
         style="font-weight:700;font-size:32px;font-family:'Source Code Pro', 'Source Code Pro_MSFontService', sans-serif;fill:#548235"
         id="path11386" />
      <path
         d="m 47.263902,6.752 q -1.536,0 -2.88,-0.256 -1.312,-0.224 -2.272,-0.736 -0.96,-0.48 -1.504,-1.248 -0.544,-0.768 -0.544,-1.824 0,-1.952 2.464,-3.168 v -0.128 q -0.672,-0.416 -1.152,-1.056 -0.448,-0.64 -0.448,-1.664 0,-0.8 0.512,-1.6 0.544,-0.8 1.376,-1.376 v -0.128 q -0.864,-0.576 -1.472,-1.6 -0.608,-1.056 -0.608,-2.464 0,-1.44 0.544,-2.496 0.576,-1.088 1.504,-1.792 0.928,-0.736 2.144,-1.088 1.248,-0.384 2.592,-0.384 1.472,0 2.624,0.384 h 6.432 v 3.456 h -3.2 q 0.256,0.352 0.48,0.928 0.224,0.544 0.224,1.152 0,1.376 -0.512,2.368 -0.512,0.992 -1.408,1.664 -0.864,0.64 -2.08,0.96 -1.184,0.32 -2.56,0.32 -1.024,0 -2.176,-0.32 -0.352,0.256 -0.544,0.512 -0.16,0.256 -0.16,0.672 0,0.64 0.64,0.928 0.64,0.256 2.048,0.256 h 2.944 q 3.136,0 4.768,0.928 1.664,0.928 1.664,3.072 0,1.248 -0.672,2.304 -0.672,1.056 -1.888,1.792 -1.216,0.768 -2.976,1.184 -1.76,0.448 -3.904,0.448 z m 0.256,-14.624 q 0.992,0 1.696,-0.64 0.704,-0.672 0.704,-1.984 0,-1.248 -0.704,-1.92 -0.704,-0.672 -1.696,-0.672 -0.992,0 -1.696,0.672 -0.672,0.672 -0.672,1.92 0,1.312 0.672,1.984 0.704,0.64 1.696,0.64 z m 0.416,11.648 q 1.92,0 3.104,-0.544 1.184,-0.544 1.184,-1.376 0,-0.768 -0.704,-0.992 -0.704,-0.224 -2.08,-0.224 h -1.984 q -0.864,0 -1.44,-0.064 -0.544,-0.032 -0.992,-0.16 -0.608,0.384 -0.864,0.736 -0.256,0.384 -0.256,0.832 0,0.896 1.056,1.344 1.088,0.448 2.976,0.448 z"
         style="font-weight:700;font-size:32px;font-family:'Source Code Pro', 'Source Code Pro_MSFontService', sans-serif;fill:#548235"
         id="path11388" />
      <path
         d="m 64.767854,0.384 q -1.216,0 -2.176,-0.384 -0.96,-0.352 -1.632,-0.992 -0.672,-0.672 -1.056,-1.536 -0.352,-0.864 -0.352,-1.888 0,-1.344 0.576,-2.336 0.576,-1.024 1.824,-1.728 1.28,-0.704 3.264,-1.12 1.984,-0.448 4.8,-0.608 -0.128,-1.088 -0.96,-1.696 -0.8,-0.608 -2.432,-0.608 -1.152,0 -2.336,0.416 -1.152,0.384 -2.496,1.056 l -1.664,-3.072 q 1.632,-0.928 3.488,-1.536 1.888,-0.608 3.936,-0.608 3.328,0 5.248,1.76 1.92,1.76 1.92,5.408 V 0 h -3.84 l -0.352,-1.792 h -0.128 q -1.216,0.928 -2.656,1.568 -1.44,0.608 -2.976,0.608 z m 1.504,-3.648 q 1.056,0 1.984,-0.416 0.928,-0.448 1.76,-1.088 v -2.624 q -1.76,0.096 -2.912,0.32 -1.152,0.224 -1.824,0.576 -0.672,0.32 -0.96,0.768 -0.256,0.448 -0.256,0.96 0,0.768 0.576,1.152 0.608,0.352 1.632,0.352 z"
         style="font-weight:700;font-size:32px;font-family:'Source Code Pro', 'Source Code Pro_MSFontService', sans-serif;fill:#548235"
         id="path11390" />
      <path
         d="m 89.439805,0.384 q -3.008,0 -4.544,-1.76 -1.504,-1.792 -1.504,-4.832 V -18.72 h -4.992 v -3.712 h 9.696 v 16.416 q 0,0.736 0.192,1.248 0.224,0.48 0.576,0.8 0.384,0.288 0.832,0.416 0.48,0.128 0.992,0.128 0.544,0 1.12,-0.096 0.608,-0.128 1.344,-0.416 l 1.056,3.456 q -0.64,0.192 -1.184,0.352 -0.544,0.16 -1.088,0.256 -0.544,0.128 -1.152,0.192 -0.608,0.064 -1.344,0.064 z"
         style="font-weight:700;font-size:32px;font-family:'Source Code Pro', 'Source Code Pro_MSFontService', sans-serif;fill:#548235"
         id="path11392" />
      <path
         d="m 623.20101,0 v -3.968 h 4.864 v -12.928 h -4.864 v -3.968 h 14.464 v 3.968 h -4.864 v 12.928 h 4.864 V 0 Z"
         style="fill:#b40015"
         id="path11394" />
      <path
         d="m 652.67296,0.384 q -3.008,0 -4.544,-1.76 -1.504,-1.792 -1.504,-4.832 V -18.72 h -4.992 v -3.712 h 9.696 v 16.416 q 0,0.736 0.192,1.248 0.224,0.48 0.576,0.8 0.384,0.288 0.832,0.416 0.48,0.128 0.992,0.128 0.544,0 1.12,-0.096 0.608,-0.128 1.344,-0.416 l 1.056,3.456 q -0.64,0.192 -1.184,0.352 -0.544,0.16 -1.088,0.256 -0.544,0.128 -1.152,0.192 -0.608,0.064 -1.344,0.064 z"
         style="fill:#b40015"
         id="path11396" />
      <path
         d="m 671.87291,0.384 q -3.008,0 -4.544,-1.76 -1.504,-1.792 -1.504,-4.832 V -18.72 h -4.992 v -3.712 h 9.696 v 16.416 q 0,0.736 0.192,1.248 0.224,0.48 0.576,0.8 0.384,0.288 0.832,0.416 0.48,0.128 0.992,0.128 0.544,0 1.12,-0.096 0.608,-0.128 1.344,-0.416 l 1.056,3.456 q -0.64,0.192 -1.184,0.352 -0.544,0.16 -1.088,0.256 -0.544,0.128 -1.152,0.192 -0.608,0.064 -1.344,0.064 z"
         style="fill:#b40015"
         id="path11398" />
      <path
         d="m 688.99286,0.384 q -1.856,0 -3.488,-0.544 -1.6,-0.576 -2.784,-1.632 -1.184,-1.056 -1.856,-2.592 -0.672,-1.568 -0.672,-3.552 0,-1.952 0.672,-3.488 0.704,-1.568 1.856,-2.624 1.152,-1.088 2.624,-1.632 1.504,-0.576 3.104,-0.576 1.824,0 3.232,0.576 1.408,0.576 2.336,1.6 0.96,1.024 1.44,2.432 0.48,1.376 0.48,3.008 0,0.64 -0.096,1.248 -0.064,0.576 -0.128,0.864 h -10.816 q 0.352,1.728 1.568,2.528 1.216,0.8 3.168,0.8 1.088,0 2.048,-0.288 0.992,-0.288 2.048,-0.832 l 1.568,2.848 q -1.376,0.864 -3.04,1.376 -1.664,0.48 -3.264,0.48 z m -0.384,-13.056 q -1.408,0 -2.368,0.736 -0.928,0.736 -1.28,2.24 h 6.784 q -0.352,-2.976 -3.136,-2.976 z"
         style="fill:#b40015"
         id="path11400" />
      <path
         d="m 706.49681,6.752 q -1.536,0 -2.88,-0.256 -1.312,-0.224 -2.272,-0.736 -0.96,-0.48 -1.504,-1.248 -0.544,-0.768 -0.544,-1.824 0,-1.952 2.464,-3.168 v -0.128 q -0.672,-0.416 -1.152,-1.056 -0.448,-0.64 -0.448,-1.664 0,-0.8 0.512,-1.6 0.544,-0.8 1.376,-1.376 v -0.128 q -0.864,-0.576 -1.472,-1.6 -0.608,-1.056 -0.608,-2.464 0,-1.44 0.544,-2.496 0.576,-1.088 1.504,-1.792 0.928,-0.736 2.144,-1.088 1.248,-0.384 2.592,-0.384 1.472,0 2.624,0.384 h 6.432 v 3.456 h -3.2 q 0.256,0.352 0.48,0.928 0.224,0.544 0.224,1.152 0,1.376 -0.512,2.368 -0.512,0.992 -1.408,1.664 -0.864,0.64 -2.08,0.96 -1.184,0.32 -2.56,0.32 -1.024,0 -2.176,-0.32 -0.352,0.256 -0.544,0.512 -0.16,0.256 -0.16,0.672 0,0.64 0.64,0.928 0.64,0.256 2.048,0.256 h 2.944 q 3.136,0 4.768,0.928 1.664,0.928 1.664,3.072 0,1.248 -0.672,2.304 -0.672,1.056 -1.888,1.792 -1.216,0.768 -2.976,1.184 -1.76,0.448 -3.904,0.448 z m 0.256,-14.624 q 0.992,0 1.696,-0.64 0.704,-0.672 0.704,-1.984 0,-1.248 -0.704,-1.92 -0.704,-0.672 -1.696,-0.672 -0.992,0 -1.696,0.672 -0.672,0.672 -0.672,1.92 0,1.312 0.672,1.984 0.704,0.64 1.696,0.64 z m 0.416,11.648 q 1.92,0 3.104,-0.544 1.184,-0.544 1.184,-1.376 0,-0.768 -0.704,-0.992 -0.704,-0.224 -2.08,-0.224 h -1.984 q -0.864,0 -1.44,-0.064 -0.544,-0.032 -0.992,-0.16 -0.608,0.384 -0.864,0.736 -0.256,0.384 -0.256,0.832 0,0.896 1.056,1.344 1.088,0.448 2.976,0.448 z"
         style="fill:#b40015"
         id="path11402" />
      <path
         d="m 724.00076,0.384 q -1.216,0 -2.176,-0.384 -0.96,-0.352 -1.632,-0.992 -0.672,-0.672 -1.056,-1.536 -0.352,-0.864 -0.352,-1.888 0,-1.344 0.576,-2.336 0.576,-1.024 1.824,-1.728 1.28,-0.704 3.264,-1.12 1.984,-0.448 4.8,-0.608 -0.128,-1.088 -0.96,-1.696 -0.8,-0.608 -2.432,-0.608 -1.152,0 -2.336,0.416 -1.152,0.384 -2.496,1.056 l -1.664,-3.072 q 1.632,-0.928 3.488,-1.536 1.888,-0.608 3.936,-0.608 3.328,0 5.248,1.76 1.92,1.76 1.92,5.408 V 0 h -3.84 l -0.352,-1.792 h -0.128 q -1.216,0.928 -2.656,1.568 -1.44,0.608 -2.976,0.608 z m 1.504,-3.648 q 1.056,0 1.984,-0.416 0.928,-0.448 1.76,-1.088 v -2.624 q -1.76,0.096 -2.912,0.32 -1.152,0.224 -1.824,0.576 -0.672,0.32 -0.96,0.768 -0.256,0.448 -0.256,0.96 0,0.768 0.576,1.152 0.608,0.352 1.632,0.352 z"
         style="fill:#b40015"
         id="path11404" />
      <path
         d="m 748.67271,0.384 q -3.008,0 -4.544,-1.76 -1.504,-1.792 -1.504,-4.832 V -18.72 h -4.992 v -3.712 h 9.696 v 16.416 q 0,0.736 0.192,1.248 0.224,0.48 0.576,0.8 0.384,0.288 0.832,0.416 0.48,0.128 0.992,0.128 0.544,0 1.12,-0.096 0.608,-0.128 1.344,-0.416 l 1.056,3.456 q -0.64,0.192 -1.184,0.352 -0.544,0.16 -1.088,0.256 -0.544,0.128 -1.152,0.192 -0.608,0.064 -1.344,0.064 z"
         style="fill:#b40015"
         id="path11406" />
      <path
         d="M -199.72,117 V 96.008 h 3.264 l 2.944,8.96 1.024,3.392 h 0.128 l 0.992,-3.392 2.976,-8.96 h 3.264 V 117 h -2.56 v -10.496 q 0,-0.768 0.032,-1.76 0.064,-1.024 0.128,-2.048 0.096,-1.024 0.16,-1.984 0.064,-0.96 0.128,-1.632 h -0.096 l -1.184,4.096 -3.008,8.256 h -1.92 l -2.944,-8.256 -1.216,-4.096 h -0.064 q 0.064,0.672 0.128,1.632 0.096,0.96 0.16,1.984 0.064,1.024 0.096,2.048 0.064,0.992 0.064,1.76 V 117 Z"
         style="font-weight:400;fill:#000000"
         id="path11408" />
      <path
         d="m -172.71205,117 v -13.408 h -7.232 v -2.144 h 9.856 V 117 Z m 1.024,-18.816 q -0.896,0 -1.504,-0.544 -0.608,-0.576 -0.608,-1.504 0,-0.928 0.608,-1.472 0.608,-0.576 1.504,-0.576 0.896,0 1.504,0.576 0.608,0.544 0.608,1.472 0,0.928 -0.608,1.504 -0.608,0.544 -1.504,0.544 z"
         style="font-weight:400;fill:#000000"
         id="path11410" />
      <path
         d="m -160.6481,117 v -15.552 h 2.176 l 0.224,2.656 h 0.128 q 1.216,-1.312 2.624,-2.176 1.408,-0.864 3.232,-0.864 2.784,0 4.064,1.6 1.312,1.568 1.312,4.672 V 117 h -2.624 v -9.312 q 0,-2.208 -0.832,-3.264 -0.832,-1.088 -2.752,-1.088 -0.704,0 -1.312,0.192 -0.576,0.16 -1.152,0.512 -0.576,0.352 -1.184,0.896 -0.608,0.512 -1.28,1.216 V 117 Z"
         style="font-weight:400;fill:#000000"
         id="path11412" />
      <path
         d="m -117.1602,117 -6.688,-20.992 h 2.816 l 3.392,11.328 q 0.544,1.888 0.992,3.488 0.448,1.6 1.024,3.456 h 0.128 q 0.288,-0.928 0.544,-1.76 0.256,-0.864 0.48,-1.696 0.256,-0.832 0.48,-1.696 0.256,-0.864 0.512,-1.792 l 3.36,-11.328 h 2.72 l -6.656,20.992 z"
         style="font-weight:400;fill:#000000"
         id="path11414" />
      <path
         d="m -98.152246,117.384 q -1.088,0 -2.048004,-0.32 -0.96,-0.288 -1.696,-0.832 -0.704,-0.576 -1.12,-1.376 -0.416,-0.832 -0.416,-1.888 0,-1.312 0.608,-2.272 0.64,-0.992 1.984,-1.696 1.376004,-0.704 3.520004,-1.152 2.144,-0.448 5.152,-0.704 -0.032,-0.8 -0.256,-1.504 -0.224,-0.704 -0.704,-1.216 -0.48,-0.544 -1.28,-0.864 -0.768,-0.32 -1.888,-0.32 -1.536,0 -2.944,0.608 -1.408004,0.576 -2.496004,1.248 l -1.024,-1.792 q 0.576,-0.384 1.344,-0.768 0.8,-0.416 1.664004,-0.736 0.896,-0.32 1.888,-0.512 0.992,-0.224 2.016,-0.224 3.2,0 4.736,1.76 1.568,1.728 1.568,4.64 V 117 h -2.144 l -0.224,-2.112 h -0.096 q -1.312,1.024 -2.912,1.76 -1.568,0.736 -3.232,0.736 z m 0.704,-2.112 q 1.344,0 2.624,-0.576 1.312,-0.608 2.656,-1.728 v -4.096 q -2.496,0.192 -4.192,0.544 -1.664,0.352 -2.688,0.864 -0.992004,0.48 -1.408004,1.12 -0.416,0.608 -0.416,1.376 0,0.672 0.288,1.152 0.288,0.448 0.736004,0.768 0.48,0.288 1.088,0.448 0.64,0.128 1.312,0.128 z"
         style="font-weight:400;fill:#000000"
         id="path11416" />
      <path
         d="m -73.800295,117.384 q -2.496,0 -3.808,-1.408 -1.312,-1.408 -1.312,-4.192 V 96.36 h -5.536 v -2.144 h 8.16 v 17.76 q 0,1.728 0.832,2.496 0.832,0.736 2.24,0.736 1.376,0 2.912,-0.704 l 0.672,1.952 q -1.088,0.448 -1.984,0.672 -0.896,0.256 -2.176,0.256 z"
         style="font-weight:400;fill:#000000"
         id="path11418" />
    </g>
    <g
       clip-path="url(#clip1)"
       id="g7059">
      <g
         aria-label="L =="
         transform="translate(380.476 254)"
         id="text7057"
         style="font-size:32px;font-family:'Source Code Pro', 'Source Code Pro_MSFontService', sans-serif">
        <path
           d="m 4.288,0 v -20.992 h 2.624 v 18.72 h 10.4 V 0 Z"
           style="font-size:32px;font-family:'Source Code Pro', 'Source Code Pro_MSFontService', sans-serif"
           id="path11421" />
        <path
           d="m 41.119902,-12.992 v -1.984 h 13.76 v 1.984 z m 0,6.816 V -8.16 h 13.76 v 1.984 z"
           style="font-size:32px;font-family:'Source Code Pro', 'Source Code Pro_MSFontService', sans-serif"
           id="path11423" />
        <path
           d="m 60.319854,-12.992 v -1.984 h 13.76 v 1.984 z m 0,6.816 V -8.16 h 13.76 v 1.984 z"
           style="font-size:32px;font-family:'Source Code Pro', 'Source Code Pro_MSFontService', sans-serif"
           id="path11425" />
      </g>
    </g>
    <g
       clip-path="url(#clip2)"
       id="g7063">
      <g
         aria-label="Mid"
         transform="translate(476.31 254)"
         id="text7061"
         style="font-size:32px;font-family:'Source Code Pro', 'Source Code Pro_MSFontService', sans-serif">
        <path
           d="m 2.304,0 v -20.992 h 3.264 l 2.944,8.96 1.024,3.392 h 0.128 l 0.992,-3.392 2.976,-8.96 h 3.264 V 0 h -2.56 v -10.496 q 0,-0.768 0.032,-1.76 0.064,-1.024 0.128,-2.048 0.096,-1.024 0.16,-1.984 0.064,-0.96 0.128,-1.632 h -0.096 l -1.184,4.096 -3.008,8.256 H 8.576 L 5.632,-13.824 4.416,-17.92 H 4.352 q 0.064,0.672 0.128,1.632 0.096,0.96 0.16,1.984 0.064,1.024 0.096,2.048 0.064,0.992 0.064,1.76 V 0 Z"
           style="font-size:32px;font-family:'Source Code Pro', 'Source Code Pro_MSFontService', sans-serif"
           id="path11428" />
        <path
           d="m 29.311951,0 v -13.408 h -7.232 v -2.144 h 9.856 V 0 Z m 1.024,-18.816 q -0.896,0 -1.504,-0.544 -0.608,-0.576 -0.608,-1.504 0,-0.928 0.608,-1.472 0.608,-0.576 1.504,-0.576 0.896,0 1.504,0.576 0.608,0.544 0.608,1.472 0,0.928 -0.608,1.504 -0.608,0.544 -1.504,0.544 z"
           style="font-size:32px;font-family:'Source Code Pro', 'Source Code Pro_MSFontService', sans-serif"
           id="path11430" />
        <path
           d="m 47.071902,0.384 q -1.536,0 -2.784,-0.544 -1.216,-0.544 -2.112,-1.568 -0.896,-1.056 -1.376,-2.56 -0.48,-1.504 -0.48,-3.456 0,-1.888 0.576,-3.392 0.608,-1.536 1.568,-2.592 0.992,-1.056 2.272,-1.632 1.28,-0.576 2.656,-0.576 1.408,0 2.496,0.544 1.12,0.512 2.144,1.472 h 0.096 l -0.128,-2.88 v -5.984 h 2.624 V 0 h -2.176 l -0.224,-2.048 h -0.096 q -0.96,0.992 -2.304,1.728 -1.312,0.704 -2.752,0.704 z m 0.544,-2.208 q 2.304,0 4.384,-2.336 v -7.744 q -1.056,-0.992 -2.08,-1.408 -0.992,-0.416 -2.016,-0.416 -1.024,0 -1.92,0.448 -0.864,0.416 -1.536,1.216 -0.64,0.768 -1.024,1.856 -0.384,1.088 -0.384,2.432 0,2.816 1.184,4.384 1.216,1.568 3.392,1.568 z"
           style="font-size:32px;font-family:'Source Code Pro', 'Source Code Pro_MSFontService', sans-serif"
           id="path11432" />
      </g>
    </g>
    <g
       aria-label="RMax ValORLegalIllegalMin ValLMid==RMax Val"
       transform="translate(630.417 254)"
       id="text7081"
       style="font-size:32px;font-family:'Source Code Pro', 'Source Code Pro_MSFontService', sans-serif">
      <path
         d="m 3.2,0 v -20.992 h 6.528 q 1.6,0 2.944,0.32 1.344,0.288 2.304,0.992 0.992,0.704 1.536,1.824 0.544,1.12 0.544,2.752 0,2.464 -1.28,3.936 -1.28,1.472 -3.424,2.016 L 17.696,0 h -3.04 L 9.6,-8.864 H 5.856 V 0 Z m 2.656,-11.04 h 3.488 q 2.464,0 3.744,-0.992 1.312,-1.024 1.312,-3.072 0,-2.08 -1.312,-2.912 -1.28,-0.832 -3.744,-0.832 H 5.856 Z"
         style="font-size:32px;font-family:'Source Code Pro', 'Source Code Pro_MSFontService', sans-serif"
         id="path11435" />
      <path
         d="m 493.37501,0 v -20.992 h 3.264 l 2.944,8.96 1.024,3.392 h 0.128 l 0.992,-3.392 2.976,-8.96 h 3.264 V 0 h -2.56 v -10.496 q 0,-0.768 0.032,-1.76 0.064,-1.024 0.128,-2.048 0.096,-1.024 0.16,-1.984 0.064,-0.96 0.128,-1.632 h -0.096 l -1.184,4.096 -3.008,8.256 h -1.92 l -2.944,-8.256 -1.216,-4.096 h -0.064 q 0.064,0.672 0.128,1.632 0.096,0.96 0.16,1.984 0.064,1.024 0.096,2.048 0.064,0.992 0.064,1.76 V 0 Z"
         id="path11437" />
      <path
         d="m 518.14297,0.384 q -1.088,0 -2.048,-0.32 -0.96,-0.288 -1.696,-0.832 -0.704,-0.576 -1.12,-1.376 -0.416,-0.832 -0.416,-1.888 0,-1.312 0.608,-2.272 0.64,-0.992 1.984,-1.696 1.376,-0.704 3.52,-1.152 2.144,-0.448 5.152,-0.704 -0.032,-0.8 -0.256,-1.504 -0.224,-0.704 -0.704,-1.216 -0.48,-0.544 -1.28,-0.864 -0.768,-0.32 -1.888,-0.32 -1.536,0 -2.944,0.608 -1.408,0.576 -2.496,1.248 l -1.024,-1.792 q 0.576,-0.384 1.344,-0.768 0.8,-0.416 1.664,-0.736 0.896,-0.32 1.888,-0.512 0.992,-0.224 2.016,-0.224 3.2,0 4.736,1.76 1.568,1.728 1.568,4.64 V 0 h -2.144 l -0.224,-2.112 h -0.096 q -1.312,1.024 -2.912,1.76 -1.568,0.736 -3.232,0.736 z m 0.704,-2.112 q 1.344,0 2.624,-0.576 1.312,-0.608 2.656,-1.728 v -4.096 q -2.496,0.192 -4.192,0.544 -1.664,0.352 -2.688,0.864 -0.992,0.48 -1.408,1.12 -0.416,0.608 -0.416,1.376 0,0.672 0.288,1.152 0.288,0.448 0.736,0.768 0.48,0.288 1.088,0.448 0.64,0.128 1.312,0.128 z"
         id="path11439" />
      <path
         d="m 531.51892,0 5.92,-8.064 -5.472,-7.488 h 2.912 l 2.464,3.424 q 0.416,0.64 0.864,1.312 0.48,0.672 0.96,1.312 h 0.128 q 0.448,-0.64 0.896,-1.344 0.448,-0.704 0.864,-1.344 l 2.336,-3.36 h 2.784 l -5.536,7.712 5.952,7.84 h -2.88 l -2.72,-3.584 q -0.48,-0.672 -1.024,-1.408 -0.512,-0.736 -1.024,-1.408 h -0.128 q -0.48,0.704 -0.96,1.408 -0.48,0.672 -0.96,1.408 l -2.56,3.584 z"
         id="path11441" />
      <path
         d="m 575.93482,0 -6.688,-20.992 h 2.816 l 3.392,11.328 q 0.544,1.888 0.992,3.488 0.448,1.6 1.024,3.456 h 0.128 q 0.288,-0.928 0.544,-1.76 0.256,-0.864 0.48,-1.696 0.256,-0.832 0.48,-1.696 0.256,-0.864 0.512,-1.792 l 3.36,-11.328 h 2.72 L 579.03882,0 Z"
         id="path11443" />
      <path
         d="m 594.94277,0.384 q -1.088,0 -2.048,-0.32 -0.96,-0.288 -1.696,-0.832 -0.704,-0.576 -1.12,-1.376 -0.416,-0.832 -0.416,-1.888 0,-1.312 0.608,-2.272 0.64,-0.992 1.984,-1.696 1.376,-0.704 3.52,-1.152 2.144,-0.448 5.152,-0.704 -0.032,-0.8 -0.256,-1.504 -0.224,-0.704 -0.704,-1.216 -0.48,-0.544 -1.28,-0.864 -0.768,-0.32 -1.888,-0.32 -1.536,0 -2.944,0.608 -1.408,0.576 -2.496,1.248 l -1.024,-1.792 q 0.576,-0.384 1.344,-0.768 0.8,-0.416 1.664,-0.736 0.896,-0.32 1.888,-0.512 0.992,-0.224 2.016,-0.224 3.2,0 4.736,1.76 1.568,1.728 1.568,4.64 V 0 h -2.144 l -0.224,-2.112 h -0.096 q -1.312,1.024 -2.912,1.76 -1.568,0.736 -3.232,0.736 z m 0.704,-2.112 q 1.344,0 2.624,-0.576 1.312,-0.608 2.656,-1.728 v -4.096 q -2.496,0.192 -4.192,0.544 -1.664,0.352 -2.688,0.864 -0.992,0.48 -1.408,1.12 -0.416,0.608 -0.416,1.376 0,0.672 0.288,1.152 0.288,0.448 0.736,0.768 0.48,0.288 1.088,0.448 0.64,0.128 1.312,0.128 z"
         id="path11445" />
      <path
         d="m 619.29472,0.384 q -2.496,0 -3.808,-1.408 -1.312,-1.408 -1.312,-4.192 V -20.64 h -5.536 v -2.144 h 8.16 v 17.76 q 0,1.728 0.832,2.496 0.832,0.736 2.24,0.736 1.376,0 2.912,-0.704 l 0.672,1.952 q -1.088,0.448 -1.984,0.672 -0.896,0.256 -2.176,0.256 z"
         id="path11447" />
      <path
         d="m -10.281401,119.444 q -2.516,0 -4.588,-0.851 -2.035,-0.851 -3.515,-2.442 -1.443,-1.628 -2.257,-3.959 -0.814,-2.368 -0.814,-5.328 0,-2.96 0.814,-5.254 0.814,-2.331 2.257,-3.885 1.48,-1.591 3.515,-2.405 2.072,-0.814 4.588,-0.814 2.4790003,0 4.5510003,0.814 2.072,0.814 3.515,2.405 1.47999997,1.591 2.29399997,3.885 0.814,2.294 0.814,5.254 0,2.96 -0.814,5.328 -0.814,2.331 -2.29399997,3.959 -1.443,1.591 -3.515,2.442 -2.072,0.851 -4.5510003,0.851 z m 0,-5.476 q 2.1830003,0 3.4040003,-1.887 1.258,-1.924 1.258,-5.217 0,-3.293 -1.258,-5.069 -1.221,-1.813 -3.4040003,-1.813 -2.183,0 -3.441,1.813 -1.221,1.776 -1.221,5.069 0,3.293 1.221,5.217 1.258,1.887 3.441,1.887 z"
         style="font-weight:900;font-size:37px;font-family:'Source Sans Pro Black', 'Source Sans Pro Black_MSFontService', sans-serif"
         id="path11449" />
      <path
         d="M 5.1845784,119 V 94.95 h 9.1019996 q 1.924,0 3.663,0.37 1.776,0.37 3.071,1.258 1.332,0.888 2.109,2.405 0.777,1.48 0.777,3.737 0,2.59 -1.073,4.292 -1.036,1.702 -2.812,2.664 l 5.217,9.324 h -7.104 l -4.144,-8.066 h -2.442 V 119 Z m 6.3639996,-13.098 h 2.294 q 3.848,0 3.848,-3.182 0,-1.554 -0.999,-2.146 -0.962,-0.592 -2.849,-0.592 h -2.294 z"
         style="font-weight:900;font-size:37px;font-family:'Source Sans Pro Black', 'Source Sans Pro Black_MSFontService', sans-serif"
         id="path11451" />
      <path
         d="m -309.19499,234 v -20.864 h 4.704 v 16.896 h 9.28 V 234 Z"
         style="font-weight:700;fill:#548235"
         id="path11453" />
      <path
         d="m -282.85904,234.384 q -1.856,0 -3.488,-0.544 -1.6,-0.576 -2.784,-1.632 -1.184,-1.056 -1.856,-2.592 -0.672,-1.568 -0.672,-3.552 0,-1.952 0.672,-3.488 0.704,-1.568 1.856,-2.624 1.152,-1.088 2.624,-1.632 1.504,-0.576 3.104,-0.576 1.824,0 3.232,0.576 1.408,0.576 2.336,1.6 0.96,1.024 1.44,2.432 0.48,1.376 0.48,3.008 0,0.64 -0.096,1.248 -0.064,0.576 -0.128,0.864 h -10.816 q 0.352,1.728 1.568,2.528 1.216,0.8 3.168,0.8 1.088,0 2.048,-0.288 0.992,-0.288 2.048,-0.832 l 1.568,2.848 q -1.376,0.864 -3.04,1.376 -1.664,0.48 -3.264,0.48 z m -0.384,-13.056 q -1.408,0 -2.368,0.736 -0.928,0.736 -1.28,2.24 h 6.784 q -0.352,-2.976 -3.136,-2.976 z"
         style="font-weight:700;fill:#548235"
         id="path11455" />
      <path
         d="m -265.35509,240.752 q -1.536,0 -2.88,-0.256 -1.312,-0.224 -2.272,-0.736 -0.96,-0.48 -1.504,-1.248 -0.544,-0.768 -0.544,-1.824 0,-1.952 2.464,-3.168 v -0.128 q -0.672,-0.416 -1.152,-1.056 -0.448,-0.64 -0.448,-1.664 0,-0.8 0.512,-1.6 0.544,-0.8 1.376,-1.376 v -0.128 q -0.864,-0.576 -1.472,-1.6 -0.608,-1.056 -0.608,-2.464 0,-1.44 0.544,-2.496 0.576,-1.088 1.504,-1.792 0.928,-0.736 2.144,-1.088 1.248,-0.384 2.592,-0.384 1.472,0 2.624,0.384 h 6.432 v 3.456 h -3.2 q 0.256,0.352 0.48,0.928 0.224,0.544 0.224,1.152 0,1.376 -0.512,2.368 -0.512,0.992 -1.408,1.664 -0.864,0.64 -2.08,0.96 -1.184,0.32 -2.56,0.32 -1.024,0 -2.176,-0.32 -0.352,0.256 -0.544,0.512 -0.16,0.256 -0.16,0.672 0,0.64 0.64,0.928 0.64,0.256 2.048,0.256 h 2.944 q 3.136,0 4.768,0.928 1.664,0.928 1.664,3.072 0,1.248 -0.672,2.304 -0.672,1.056 -1.888,1.792 -1.216,0.768 -2.976,1.184 -1.76,0.448 -3.904,0.448 z m 0.256,-14.624 q 0.992,0 1.696,-0.64 0.704,-0.672 0.704,-1.984 0,-1.248 -0.704,-1.92 -0.704,-0.672 -1.696,-0.672 -0.992,0 -1.696,0.672 -0.672,0.672 -0.672,1.92 0,1.312 0.672,1.984 0.704,0.64 1.696,0.64 z m 0.416,11.648 q 1.92,0 3.104,-0.544 1.184,-0.544 1.184,-1.376 0,-0.768 -0.704,-0.992 -0.704,-0.224 -2.08,-0.224 h -1.984 q -0.864,0 -1.44,-0.064 -0.544,-0.032 -0.992,-0.16 -0.608,0.384 -0.864,0.736 -0.256,0.384 -0.256,0.832 0,0.896 1.056,1.344 1.088,0.448 2.976,0.448 z"
         style="font-weight:700;fill:#548235"
         id="path11457" />
      <path
         d="m -247.85113,234.384 q -1.216,0 -2.176,-0.384 -0.96,-0.352 -1.632,-0.992 -0.672,-0.672 -1.056,-1.536 -0.352,-0.864 -0.352,-1.888 0,-1.344 0.576,-2.336 0.576,-1.024 1.824,-1.728 1.28,-0.704 3.264,-1.12 1.984,-0.448 4.8,-0.608 -0.128,-1.088 -0.96,-1.696 -0.8,-0.608 -2.432,-0.608 -1.152,0 -2.336,0.416 -1.152,0.384 -2.496,1.056 l -1.664,-3.072 q 1.632,-0.928 3.488,-1.536 1.888,-0.608 3.936,-0.608 3.328,0 5.248,1.76 1.92,1.76 1.92,5.408 V 234 h -3.84 l -0.352,-1.792 h -0.128 q -1.216,0.928 -2.656,1.568 -1.44,0.608 -2.976,0.608 z m 1.504,-3.648 q 1.056,0 1.984,-0.416 0.928,-0.448 1.76,-1.088 v -2.624 q -1.76,0.096 -2.912,0.32 -1.152,0.224 -1.824,0.576 -0.672,0.32 -0.96,0.768 -0.256,0.448 -0.256,0.96 0,0.768 0.576,1.152 0.608,0.352 1.632,0.352 z"
         style="font-weight:700;fill:#548235"
         id="path11459" />
      <path
         d="m -223.17918,234.384 q -3.008,0 -4.544,-1.76 -1.504,-1.792 -1.504,-4.832 V 215.28 h -4.992 v -3.712 h 9.696 v 16.416 q 0,0.736 0.192,1.248 0.224,0.48 0.576,0.8 0.384,0.288 0.832,0.416 0.48,0.128 0.992,0.128 0.544,0 1.12,-0.096 0.608,-0.128 1.344,-0.416 l 1.056,3.456 q -0.64,0.192 -1.184,0.352 -0.544,0.16 -1.088,0.256 -0.544,0.128 -1.152,0.192 -0.608,0.064 -1.344,0.064 z"
         style="font-weight:700;fill:#548235"
         id="path11461" />
      <path
         d="m 310.58199,234 v -3.968 h 4.864 v -12.928 h -4.864 v -3.968 h 14.464 v 3.968 h -4.864 v 12.928 h 4.864 V 234 Z"
         style="font-weight:700;fill:#b40015"
         id="path11463" />
      <path
         d="m 340.05394,234.384 q -3.008,0 -4.544,-1.76 -1.504,-1.792 -1.504,-4.832 V 215.28 h -4.992 v -3.712 h 9.696 v 16.416 q 0,0.736 0.192,1.248 0.224,0.48 0.576,0.8 0.384,0.288 0.832,0.416 0.48,0.128 0.992,0.128 0.544,0 1.12,-0.096 0.608,-0.128 1.344,-0.416 l 1.056,3.456 q -0.64,0.192 -1.184,0.352 -0.544,0.16 -1.088,0.256 -0.544,0.128 -1.152,0.192 -0.608,0.064 -1.344,0.064 z"
         style="font-weight:700;fill:#b40015"
         id="path11465" />
      <path
         d="m 359.25389,234.384 q -3.008,0 -4.544,-1.76 -1.504,-1.792 -1.504,-4.832 V 215.28 h -4.992 v -3.712 h 9.696 v 16.416 q 0,0.736 0.192,1.248 0.224,0.48 0.576,0.8 0.384,0.288 0.832,0.416 0.48,0.128 0.992,0.128 0.544,0 1.12,-0.096 0.608,-0.128 1.344,-0.416 l 1.056,3.456 q -0.64,0.192 -1.184,0.352 -0.544,0.16 -1.088,0.256 -0.544,0.128 -1.152,0.192 -0.608,0.064 -1.344,0.064 z"
         style="font-weight:700;fill:#b40015"
         id="path11467" />
      <path
         d="m 376.37384,234.384 q -1.856,0 -3.488,-0.544 -1.6,-0.576 -2.784,-1.632 -1.184,-1.056 -1.856,-2.592 -0.672,-1.568 -0.672,-3.552 0,-1.952 0.672,-3.488 0.704,-1.568 1.856,-2.624 1.152,-1.088 2.624,-1.632 1.504,-0.576 3.104,-0.576 1.824,0 3.232,0.576 1.408,0.576 2.336,1.6 0.96,1.024 1.44,2.432 0.48,1.376 0.48,3.008 0,0.64 -0.096,1.248 -0.064,0.576 -0.128,0.864 h -10.816 q 0.352,1.728 1.568,2.528 1.216,0.8 3.168,0.8 1.088,0 2.048,-0.288 0.992,-0.288 2.048,-0.832 l 1.568,2.848 q -1.376,0.864 -3.04,1.376 -1.664,0.48 -3.264,0.48 z m -0.384,-13.056 q -1.408,0 -2.368,0.736 -0.928,0.736 -1.28,2.24 h 6.784 q -0.352,-2.976 -3.136,-2.976 z"
         style="font-weight:700;fill:#b40015"
         id="path11469" />
      <path
         d="m 393.87779,240.752 q -1.536,0 -2.88,-0.256 -1.312,-0.224 -2.272,-0.736 -0.96,-0.48 -1.504,-1.248 -0.544,-0.768 -0.544,-1.824 0,-1.952 2.464,-3.168 v -0.128 q -0.672,-0.416 -1.152,-1.056 -0.448,-0.64 -0.448,-1.664 0,-0.8 0.512,-1.6 0.544,-0.8 1.376,-1.376 v -0.128 q -0.864,-0.576 -1.472,-1.6 -0.608,-1.056 -0.608,-2.464 0,-1.44 0.544,-2.496 0.576,-1.088 1.504,-1.792 0.928,-0.736 2.144,-1.088 1.248,-0.384 2.592,-0.384 1.472,0 2.624,0.384 h 6.432 v 3.456 h -3.2 q 0.256,0.352 0.48,0.928 0.224,0.544 0.224,1.152 0,1.376 -0.512,2.368 -0.512,0.992 -1.408,1.664 -0.864,0.64 -2.08,0.96 -1.184,0.32 -2.56,0.32 -1.024,0 -2.176,-0.32 -0.352,0.256 -0.544,0.512 -0.16,0.256 -0.16,0.672 0,0.64 0.64,0.928 0.64,0.256 2.048,0.256 h 2.944 q 3.136,0 4.768,0.928 1.664,0.928 1.664,3.072 0,1.248 -0.672,2.304 -0.672,1.056 -1.888,1.792 -1.216,0.768 -2.976,1.184 -1.76,0.448 -3.904,0.448 z m 0.256,-14.624 q 0.992,0 1.696,-0.64 0.704,-0.672 0.704,-1.984 0,-1.248 -0.704,-1.92 -0.704,-0.672 -1.696,-0.672 -0.992,0 -1.696,0.672 -0.672,0.672 -0.672,1.92 0,1.312 0.672,1.984 0.704,0.64 1.696,0.64 z m 0.416,11.648 q 1.92,0 3.104,-0.544 1.184,-0.544 1.184,-1.376 0,-0.768 -0.704,-0.992 -0.704,-0.224 -2.08,-0.224 h -1.984 q -0.864,0 -1.44,-0.064 -0.544,-0.032 -0.992,-0.16 -0.608,0.384 -0.864,0.736 -0.256,0.384 -0.256,0.832 0,0.896 1.056,1.344 1.088,0.448 2.976,0.448 z"
         style="font-weight:700;fill:#b40015"
         id="path11471" />
      <path
         d="m 411.38175,234.384 q -1.216,0 -2.176,-0.384 -0.96,-0.352 -1.632,-0.992 -0.672,-0.672 -1.056,-1.536 -0.352,-0.864 -0.352,-1.888 0,-1.344 0.576,-2.336 0.576,-1.024 1.824,-1.728 1.28,-0.704 3.264,-1.12 1.984,-0.448 4.8,-0.608 -0.128,-1.088 -0.96,-1.696 -0.8,-0.608 -2.432,-0.608 -1.152,0 -2.336,0.416 -1.152,0.384 -2.496,1.056 l -1.664,-3.072 q 1.632,-0.928 3.488,-1.536 1.888,-0.608 3.936,-0.608 3.328,0 5.248,1.76 1.92,1.76 1.92,5.408 V 234 h -3.84 l -0.352,-1.792 h -0.128 q -1.216,0.928 -2.656,1.568 -1.44,0.608 -2.976,0.608 z m 1.504,-3.648 q 1.056,0 1.984,-0.416 0.928,-0.448 1.76,-1.088 v -2.624 q -1.76,0.096 -2.912,0.32 -1.152,0.224 -1.824,0.576 -0.672,0.32 -0.96,0.768 -0.256,0.448 -0.256,0.96 0,0.768 0.576,1.152 0.608,0.352 1.632,0.352 z"
         style="font-weight:700;fill:#b40015"
         id="path11473" />
      <path
         d="m 436.0537,234.384 q -3.008,0 -4.544,-1.76 -1.504,-1.792 -1.504,-4.832 V 215.28 h -4.992 v -3.712 h 9.696 v 16.416 q 0,0.736 0.192,1.248 0.224,0.48 0.576,0.8 0.384,0.288 0.832,0.416 0.48,0.128 0.992,0.128 0.544,0 1.12,-0.096 0.608,-0.128 1.344,-0.416 l 1.056,3.456 q -0.64,0.192 -1.184,0.352 -0.544,0.16 -1.088,0.256 -0.544,0.128 -1.152,0.192 -0.608,0.064 -1.344,0.064 z"
         style="font-weight:700;fill:#b40015"
         id="path11475" />
      <path
         d="m -603.76698,350 v -20.992 h 3.264 l 2.944,8.96 1.024,3.392 h 0.128 l 0.992,-3.392 2.976,-8.96 h 3.264 V 350 h -2.56 v -10.496 q 0,-0.768 0.032,-1.76 0.064,-1.024 0.128,-2.048 0.096,-1.024 0.16,-1.984 0.064,-0.96 0.128,-1.632 h -0.096 l -1.184,4.096 -3.008,8.256 h -1.92 l -2.944,-8.256 -1.216,-4.096 h -0.064 q 0.064,0.672 0.128,1.632 0.096,0.96 0.16,1.984 0.064,1.024 0.096,2.048 0.064,0.992 0.064,1.76 V 350 Z"
         id="path11477" />
      <path
         d="m -576.75903,350 v -13.408 h -7.232 v -2.144 h 9.856 V 350 Z m 1.024,-18.816 q -0.896,0 -1.504,-0.544 -0.608,-0.576 -0.608,-1.504 0,-0.928 0.608,-1.472 0.608,-0.576 1.504,-0.576 0.896,0 1.504,0.576 0.608,0.544 0.608,1.472 0,0.928 -0.608,1.504 -0.608,0.544 -1.504,0.544 z"
         id="path11479" />
      <path
         d="m -564.69508,350 v -15.552 h 2.176 l 0.224,2.656 h 0.128 q 1.216,-1.312 2.624,-2.176 1.408,-0.864 3.232,-0.864 2.784,0 4.064,1.6 1.312,1.568 1.312,4.672 V 350 h -2.624 v -9.312 q 0,-2.208 -0.832,-3.264 -0.832,-1.088 -2.752,-1.088 -0.704,0 -1.312,0.192 -0.576,0.16 -1.152,0.512 -0.576,0.352 -1.184,0.896 -0.608,0.512 -1.28,1.216 V 350 Z"
         id="path11481" />
      <path
         d="m -521.20718,350 -6.688,-20.992 h 2.816 l 3.392,11.328 q 0.544,1.888 0.992,3.488 0.448,1.6 1.024,3.456 h 0.128 q 0.288,-0.928 0.544,-1.76 0.256,-0.864 0.48,-1.696 0.256,-0.832 0.48,-1.696 0.256,-0.864 0.512,-1.792 l 3.36,-11.328 h 2.72 l -6.656,20.992 z"
         id="path11483" />
      <path
         d="m -502.19923,350.384 q -1.088,0 -2.048,-0.32 -0.96,-0.288 -1.696,-0.832 -0.704,-0.576 -1.12,-1.376 -0.416,-0.832 -0.416,-1.888 0,-1.312 0.608,-2.272 0.64,-0.992 1.984,-1.696 1.376,-0.704 3.52,-1.152 2.144,-0.448 5.152,-0.704 -0.032,-0.8 -0.256,-1.504 -0.224,-0.704 -0.704,-1.216 -0.48,-0.544 -1.28,-0.864 -0.768,-0.32 -1.888,-0.32 -1.536,0 -2.944,0.608 -1.408,0.576 -2.496,1.248 l -1.024,-1.792 q 0.576,-0.384 1.344,-0.768 0.8,-0.416 1.664,-0.736 0.896,-0.32 1.888,-0.512 0.992,-0.224 2.016,-0.224 3.2,0 4.736,1.76 1.568,1.728 1.568,4.64 V 350 h -2.144 l -0.224,-2.112 h -0.096 q -1.312,1.024 -2.912,1.76 -1.568,0.736 -3.232,0.736 z m 0.704,-2.112 q 1.344,0 2.624,-0.576 1.312,-0.608 2.656,-1.728 v -4.096 q -2.496,0.192 -4.192,0.544 -1.664,0.352 -2.688,0.864 -0.992,0.48 -1.408,1.12 -0.416,0.608 -0.416,1.376 0,0.672 0.288,1.152 0.288,0.448 0.736,0.768 0.48,0.288 1.088,0.448 0.64,0.128 1.312,0.128 z"
         id="path11485" />
      <path
         d="m -477.84728,350.384 q -2.496,0 -3.808,-1.408 -1.312,-1.408 -1.312,-4.192 V 329.36 h -5.536 v -2.144 h 8.16 v 17.76 q 0,1.728 0.832,2.496 0.832,0.736 2.24,0.736 1.376,0 2.912,-0.704 l 0.672,1.952 q -1.088,0.448 -1.984,0.672 -0.896,0.256 -2.176,0.256 z"
         id="path11487" />
      <path
         d="m 4.288,350 v -20.992 h 2.624 v 18.72 h 10.4 V 350 Z"
         id="path11489" />
      <path
         d="m 137.244,350 v -20.992 h 3.264 l 2.944,8.96 1.024,3.392 h 0.128 l 0.992,-3.392 2.976,-8.96 h 3.264 V 350 h -2.56 v -10.496 q 0,-0.768 0.032,-1.76 0.064,-1.024 0.128,-2.048 0.096,-1.024 0.16,-1.984 0.064,-0.96 0.128,-1.632 h -0.096 l -1.184,4.096 -3.008,8.256 h -1.92 l -2.944,-8.256 -1.216,-4.096 h -0.064 q 0.064,0.672 0.128,1.632 0.096,0.96 0.16,1.984 0.064,1.024 0.096,2.048 0.064,0.992 0.064,1.76 V 350 Z"
         id="path11491" />
      <path
         d="m 164.25195,350 v -13.408 h -7.232 v -2.144 h 9.856 V 350 Z m 1.024,-18.816 q -0.896,0 -1.504,-0.544 -0.608,-0.576 -0.608,-1.504 0,-0.928 0.608,-1.472 0.608,-0.576 1.504,-0.576 0.896,0 1.504,0.576 0.608,0.544 0.608,1.472 0,0.928 -0.608,1.504 -0.608,0.544 -1.504,0.544 z"
         id="path11493" />
      <path
         d="m 182.0119,350.384 q -1.536,0 -2.784,-0.544 -1.216,-0.544 -2.112,-1.568 -0.896,-1.056 -1.376,-2.56 -0.48,-1.504 -0.48,-3.456 0,-1.888 0.576,-3.392 0.608,-1.536 1.568,-2.592 0.992,-1.056 2.272,-1.632 1.28,-0.576 2.656,-0.576 1.408,0 2.496,0.544 1.12,0.512 2.144,1.472 h 0.096 l -0.128,-2.88 v -5.984 h 2.624 V 350 h -2.176 l -0.224,-2.048 h -0.096 q -0.96,0.992 -2.304,1.728 -1.312,0.704 -2.752,0.704 z m 0.544,-2.208 q 2.304,0 4.384,-2.336 v -7.744 q -1.056,-0.992 -2.08,-1.408 -0.992,-0.416 -2.016,-0.416 -1.024,0 -1.92,0.448 -0.864,0.416 -1.536,1.216 -0.64,0.768 -1.024,1.856 -0.384,1.088 -0.384,2.432 0,2.816 1.184,4.384 1.216,1.568 3.392,1.568 z"
         id="path11495" />
      <path
         d="m 195.25986,337.008 v -1.984 h 13.76 v 1.984 z m 0,6.816 v -1.984 h 13.76 v 1.984 z"
         id="path11497" />
      <path
         d="m 214.45981,337.008 v -1.984 h 13.76 v 1.984 z m 0,6.816 v -1.984 h 13.76 v 1.984 z"
         id="path11499" />
      <path
         d="m 234.13976,350 v -20.992 h 6.528 q 1.6,0 2.944,0.32 1.344,0.288 2.304,0.992 0.992,0.704 1.536,1.824 0.544,1.12 0.544,2.752 0,2.464 -1.28,3.936 -1.28,1.472 -3.424,2.016 l 5.344,9.152 h -3.04 l -5.056,-8.864 h -3.744 V 350 Z m 2.656,-11.04 h 3.488 q 2.464,0 3.744,-0.992 1.312,-1.024 1.312,-3.072 0,-2.08 -1.312,-2.912 -1.28,-0.832 -3.744,-0.832 h -3.488 z"
         id="path11501" />
      <path
         d="m 493.37501,350 v -20.992 h 3.264 l 2.944,8.96 1.024,3.392 h 0.128 l 0.992,-3.392 2.976,-8.96 h 3.264 V 350 h -2.56 v -10.496 q 0,-0.768 0.032,-1.76 0.064,-1.024 0.128,-2.048 0.096,-1.024 0.16,-1.984 0.064,-0.96 0.128,-1.632 h -0.096 l -1.184,4.096 -3.008,8.256 h -1.92 l -2.944,-8.256 -1.216,-4.096 h -0.064 q 0.064,0.672 0.128,1.632 0.096,0.96 0.16,1.984 0.064,1.024 0.096,2.048 0.064,0.992 0.064,1.76 V 350 Z"
         id="path11503" />
      <path
         d="m 518.14297,350.384 q -1.088,0 -2.048,-0.32 -0.96,-0.288 -1.696,-0.832 -0.704,-0.576 -1.12,-1.376 -0.416,-0.832 -0.416,-1.888 0,-1.312 0.608,-2.272 0.64,-0.992 1.984,-1.696 1.376,-0.704 3.52,-1.152 2.144,-0.448 5.152,-0.704 -0.032,-0.8 -0.256,-1.504 -0.224,-0.704 -0.704,-1.216 -0.48,-0.544 -1.28,-0.864 -0.768,-0.32 -1.888,-0.32 -1.536,0 -2.944,0.608 -1.408,0.576 -2.496,1.248 l -1.024,-1.792 q 0.576,-0.384 1.344,-0.768 0.8,-0.416 1.664,-0.736 0.896,-0.32 1.888,-0.512 0.992,-0.224 2.016,-0.224 3.2,0 4.736,1.76 1.568,1.728 1.568,4.64 V 350 h -2.144 l -0.224,-2.112 h -0.096 q -1.312,1.024 -2.912,1.76 -1.568,0.736 -3.232,0.736 z m 0.704,-2.112 q 1.344,0 2.624,-0.576 1.312,-0.608 2.656,-1.728 v -4.096 q -2.496,0.192 -4.192,0.544 -1.664,0.352 -2.688,0.864 -0.992,0.48 -1.408,1.12 -0.416,0.608 -0.416,1.376 0,0.672 0.288,1.152 0.288,0.448 0.736,0.768 0.48,0.288 1.088,0.448 0.64,0.128 1.312,0.128 z"
         id="path11505" />
      <path
         d="m 531.51892,350 5.92,-8.064 -5.472,-7.488 h 2.912 l 2.464,3.424 q 0.416,0.64 0.864,1.312 0.48,0.672 0.96,1.312 h 0.128 q 0.448,-0.64 0.896,-1.344 0.448,-0.704 0.864,-1.344 l 2.336,-3.36 h 2.784 l -5.536,7.712 5.952,7.84 h -2.88 l -2.72,-3.584 q -0.48,-0.672 -1.024,-1.408 -0.512,-0.736 -1.024,-1.408 h -0.128 q -0.48,0.704 -0.96,1.408 -0.48,0.672 -0.96,1.408 l -2.56,3.584 z"
         id="path11507" />
      <path
         d="m 575.93482,350 -6.688,-20.992 h 2.816 l 3.392,11.328 q 0.544,1.888 0.992,3.488 0.448,1.6 1.024,3.456 h 0.128 q 0.288,-0.928 0.544,-1.76 0.256,-0.864 0.48,-1.696 0.256,-0.832 0.48,-1.696 0.256,-0.864 0.512,-1.792 l 3.36,-11.328 h 2.72 l -6.656,20.992 z"
         id="path11509" />
      <path
         d="m 594.94277,350.384 q -1.088,0 -2.048,-0.32 -0.96,-0.288 -1.696,-0.832 -0.704,-0.576 -1.12,-1.376 -0.416,-0.832 -0.416,-1.888 0,-1.312 0.608,-2.272 0.64,-0.992 1.984,-1.696 1.376,-0.704 3.52,-1.152 2.144,-0.448 5.152,-0.704 -0.032,-0.8 -0.256,-1.504 -0.224,-0.704 -0.704,-1.216 -0.48,-0.544 -1.28,-0.864 -0.768,-0.32 -1.888,-0.32 -1.536,0 -2.944,0.608 -1.408,0.576 -2.496,1.248 l -1.024,-1.792 q 0.576,-0.384 1.344,-0.768 0.8,-0.416 1.664,-0.736 0.896,-0.32 1.888,-0.512 0.992,-0.224 2.016,-0.224 3.2,0 4.736,1.76 1.568,1.728 1.568,4.64 V 350 h -2.144 l -0.224,-2.112 h -0.096 q -1.312,1.024 -2.912,1.76 -1.568,0.736 -3.232,0.736 z m 0.704,-2.112 q 1.344,0 2.624,-0.576 1.312,-0.608 2.656,-1.728 v -4.096 q -2.496,0.192 -4.192,0.544 -1.664,0.352 -2.688,0.864 -0.992,0.48 -1.408,1.12 -0.416,0.608 -0.416,1.376 0,0.672 0.288,1.152 0.288,0.448 0.736,0.768 0.48,0.288 1.088,0.448 0.64,0.128 1.312,0.128 z"
         id="path11511" />
      <path
         d="m 619.29472,350.384 q -2.496,0 -3.808,-1.408 -1.312,-1.408 -1.312,-4.192 V 329.36 h -5.536 v -2.144 h 8.16 v 17.76 q 0,1.728 0.832,2.496 0.832,0.736 2.24,0.736 1.376,0 2.912,-0.704 l 0.672,1.952 q -1.088,0.448 -1.984,0.672 -0.896,0.256 -2.176,0.256 z"
         id="path11513" />
    </g>
  </g>
</svg>
