<?xml version="1.0" encoding="utf-8"?>
<!-- Generator: Adobe Illustrator 24.1.3, SVG Export Plug-In . SVG Version: 6.00 Build 0)  -->
<svg version="1.1" id="svg131" xmlns:svg="http://www.w3.org/2000/svg"
	 xmlns="http://www.w3.org/2000/svg" xmlns:xlink="http://www.w3.org/1999/xlink" x="0px" y="0px" viewBox="0 0 217.1 187.2"
	 style="enable-background:new 0 0 217.1 187.2;" xml:space="preserve">
<style type="text/css">
	.st0{fill:none;stroke:#000000;stroke-width:0.3985;stroke-miterlimit:10;}
	.st1{clip-path:url(#SVGID_2_);}
	.st2{fill:none;stroke:#000000;stroke-width:0.3188;stroke-linecap:round;stroke-linejoin:round;stroke-miterlimit:10;}
	.st3{fill:none;}
</style>
<g id="surface1">
	<path id="path60" class="st0" d="M52.9,0.2H4.2c-2.2,0-4,1.8-4,4v20.4c0,2.2,1.8,4,4,4h48.7c2.2,0,4-1.8,4-4V4.2
		C56.9,2,55.1,0.2,52.9,0.2z"/>
	<path id="path70" class="st0" d="M85.6,28.5h56.7V0.2H85.6V28.5z"/>
	<path id="path80" class="st0" d="M168.4,93.6L114,57.4L59.6,93.6l54.4,36.3L168.4,93.6z"/>
	<g>
		<defs>
			<rect id="SVGID_1_" x="80" y="153" width="68" height="34.2"/>
		</defs>
		<clipPath id="SVGID_2_">
			<use xlink:href="#SVGID_1_"  style="overflow:visible;"/>
		</clipPath>
		<g id="g98" class="st1">
			<path id="path96" class="st0" d="M138.3,158.7H89.6c-2.2,0-4,1.8-4,4v20.4c0,2.2,1.8,4,4,4h48.7c2.2,0,4-1.8,4-4v-20.4
				C142.3,160.5,140.5,158.7,138.3,158.7z"/>
		</g>
	</g>
	<path id="path106" class="st0" d="M57.1,14.4H85"/>
	<path id="path108" class="st2" d="M83.8,12.8c0.1,0.6,1.2,1.5,1.5,1.6c-0.3,0.1-1.4,1-1.5,1.6"/>
	<path id="path110" class="st0" d="M114,28.7v27.9"/>
	<path id="path112" class="st2" d="M115.6,55.4c-0.6,0.1-1.5,1.2-1.6,1.5c-0.1-0.3-1-1.4-1.6-1.5"/>
	<path id="path114" class="st0" d="M168.7,93.6H197V14.4h-54"/>
	<path id="path116" class="st2" d="M144.2,16c-0.1-0.6-1.2-1.5-1.5-1.6c0.3-0.1,1.4-1,1.5-1.6"/>
	<path id="path122" class="st0" d="M114,130.2V158"/>
	<path id="path124" class="st2" d="M115.6,156.8c-0.6,0.1-1.5,1.2-1.6,1.5c-0.1-0.3-1-1.4-1.6-1.5"/>
	<g>
		<rect x="2" y="6.4" class="st3" width="53.1" height="16"/>
		<path d="M4.3,8.2v8.3H3.2V8.2H4.3z"/>
		<path d="M11,10.6c0.3,0.3,0.5,0.8,0.5,1.4v4.5h-1.1v-4.4c0-0.4-0.1-0.8-0.3-0.9c-0.2-0.2-0.4-0.3-0.7-0.3c-0.3,0-0.6,0.1-0.9,0.3
			S8,11.7,7.8,12v4.5H6.7v-6.3h0.9l0.1,0.9c0.2-0.3,0.5-0.6,0.8-0.8C8.9,10.1,9.2,10,9.6,10C10.2,10,10.7,10.2,11,10.6z"/>
		<path d="M14.8,7.4C14.9,7.5,15,7.7,15,7.9s-0.1,0.4-0.2,0.5c-0.1,0.1-0.3,0.2-0.6,0.2c-0.2,0-0.4-0.1-0.6-0.2
			c-0.1-0.1-0.2-0.3-0.2-0.5s0.1-0.4,0.2-0.5s0.3-0.2,0.6-0.2C14.5,7.1,14.6,7.2,14.8,7.4z M14.8,10.2v6.3h-1.1v-6.3H14.8z"/>
		<path d="M20.3,16.2c-0.4,0.3-0.9,0.4-1.4,0.4c-0.5,0-1-0.2-1.3-0.5c-0.3-0.3-0.5-0.8-0.5-1.3V11H16v-0.9h1.1V8.8l1.1-0.1v1.6h1.5
			L19.6,11h-1.4v3.8c0,0.3,0.1,0.6,0.2,0.7c0.1,0.1,0.3,0.2,0.6,0.2c0.2,0,0.5-0.1,0.8-0.3L20.3,16.2z"/>
		<path d="M22.5,7.4c0.1,0.1,0.2,0.3,0.2,0.5s-0.1,0.4-0.2,0.5c-0.1,0.1-0.3,0.2-0.6,0.2c-0.2,0-0.4-0.1-0.6-0.2
			c-0.1-0.1-0.2-0.3-0.2-0.5s0.1-0.4,0.2-0.5s0.3-0.2,0.6-0.2C22.2,7.1,22.4,7.2,22.5,7.4z M22.5,10.2v6.3h-1.1v-6.3H22.5z"/>
		<path d="M29.2,15.6c0.1,0.1,0.2,0.2,0.4,0.3l-0.3,0.8c-0.3,0-0.6-0.1-0.8-0.3c-0.2-0.1-0.3-0.4-0.4-0.7c-0.4,0.6-1.1,0.9-1.9,0.9
			c-0.6,0-1.1-0.2-1.5-0.5s-0.5-0.8-0.5-1.4c0-0.7,0.2-1.2,0.7-1.5c0.5-0.4,1.2-0.5,2.1-0.5h1v-0.5c0-0.4-0.1-0.8-0.3-1
			c-0.2-0.2-0.5-0.3-1-0.3c-0.5,0-1,0.1-1.7,0.3l-0.3-0.8c0.8-0.3,1.5-0.4,2.2-0.4c0.7,0,1.3,0.2,1.7,0.5c0.4,0.4,0.6,0.9,0.6,1.6
			V15C29,15.3,29.1,15.5,29.2,15.6z M27.9,14.8v-1.5h-0.8c-1.2,0-1.8,0.4-1.8,1.3c0,0.4,0.1,0.7,0.3,0.9c0.2,0.2,0.5,0.3,0.8,0.3
			C27.1,15.8,27.6,15.5,27.9,14.8z"/>
		<path d="M31.5,16.3c-0.2-0.2-0.4-0.6-0.4-1V7.6l1.1-0.1v7.7c0,0.2,0,0.3,0.1,0.4c0.1,0.1,0.2,0.1,0.3,0.1c0.2,0,0.3,0,0.4-0.1
			l0.3,0.8c-0.3,0.1-0.6,0.2-0.9,0.2C32,16.6,31.7,16.5,31.5,16.3z"/>
		<path d="M35.8,7.4C36,7.5,36,7.7,36,7.9S36,8.3,35.8,8.4c-0.1,0.1-0.3,0.2-0.6,0.2c-0.2,0-0.4-0.1-0.6-0.2
			c-0.1-0.1-0.2-0.3-0.2-0.5s0.1-0.4,0.2-0.5s0.3-0.2,0.6-0.2C35.5,7.1,35.7,7.2,35.8,7.4z M35.8,10.2v6.3h-1.1v-6.3H35.8z"/>
		<path d="M41.8,10.2V11l-3.3,4.6h3.3l-0.1,0.9h-4.5v-0.8l3.3-4.6h-3v-0.9H41.8z"/>
		<path d="M48,13.7h-4c0,0.7,0.2,1.2,0.5,1.5c0.3,0.3,0.7,0.5,1.2,0.5c0.3,0,0.6,0,0.8-0.1c0.3-0.1,0.5-0.2,0.8-0.4l0.5,0.7
			c-0.7,0.5-1.4,0.8-2.2,0.8c-0.9,0-1.6-0.3-2.1-0.9c-0.5-0.6-0.7-1.4-0.7-2.4c0-0.7,0.1-1.2,0.3-1.7c0.2-0.5,0.5-0.9,0.9-1.2
			s0.9-0.4,1.4-0.4c0.8,0,1.5,0.3,1.9,0.8c0.4,0.6,0.7,1.3,0.7,2.3C48,13.3,48,13.5,48,13.7z M46.9,12.8c0-0.6-0.1-1.1-0.4-1.4
			c-0.2-0.3-0.6-0.5-1.1-0.5c-0.9,0-1.4,0.7-1.5,2L46.9,12.8L46.9,12.8z"/>
	</g>
	<g>
		<rect x="89.5" y="4.5" class="st3" width="49.1" height="19.7"/>
		<path d="M91.2,5.9v5.5h2.5l-0.1,0.7h-3.3V5.9H91.2z"/>
		<path d="M97.9,7.9c0.4,0.4,0.6,1,0.6,1.8c0,0.5-0.1,0.9-0.3,1.3c-0.2,0.4-0.4,0.7-0.7,0.9c-0.3,0.2-0.7,0.3-1.1,0.3
			c-0.7,0-1.2-0.2-1.6-0.7c-0.4-0.4-0.6-1-0.6-1.8c0-0.5,0.1-0.9,0.3-1.3s0.4-0.7,0.7-0.9c0.3-0.2,0.7-0.3,1.1-0.3
			C97,7.3,97.5,7.5,97.9,7.9z M95.1,9.8c0,1.2,0.4,1.8,1.2,1.8s1.2-0.6,1.2-1.8c0-1.2-0.4-1.8-1.2-1.8C95.5,7.9,95.1,8.5,95.1,9.8z"
			/>
		<path d="M103.2,7.9c0.4,0.4,0.6,1,0.6,1.8c0,0.5-0.1,0.9-0.3,1.3c-0.2,0.4-0.4,0.7-0.7,0.9c-0.3,0.2-0.7,0.3-1.1,0.3
			c-0.7,0-1.2-0.2-1.6-0.7c-0.4-0.4-0.6-1-0.6-1.8c0-0.5,0.1-0.9,0.3-1.3s0.4-0.7,0.7-0.9c0.3-0.2,0.7-0.3,1.1-0.3
			C102.3,7.3,102.8,7.5,103.2,7.9z M100.4,9.8c0,1.2,0.4,1.8,1.2,1.8s1.2-0.6,1.2-1.8c0-1.2-0.4-1.8-1.2-1.8
			C100.8,7.9,100.4,8.5,100.4,9.8z"/>
		<path d="M108.6,7.9c0.3,0.4,0.4,1,0.4,1.8c0,0.7-0.2,1.3-0.5,1.8c-0.3,0.5-0.8,0.7-1.4,0.7c-0.5,0-0.9-0.2-1.2-0.5v2.3l-0.8,0.1
			V7.4h0.7l0.1,0.6c0.2-0.2,0.4-0.4,0.6-0.6c0.2-0.1,0.5-0.2,0.8-0.2C107.9,7.3,108.3,7.5,108.6,7.9z M108.1,9.7
			c0-1.2-0.4-1.8-1.1-1.8c-0.2,0-0.4,0.1-0.6,0.2c-0.2,0.1-0.4,0.3-0.5,0.5V11c0.1,0.2,0.3,0.3,0.5,0.4c0.2,0.1,0.4,0.1,0.6,0.1
			C107.7,11.6,108.1,11,108.1,9.7z"/>
		<path d="M92.9,16.8c0.3,0.1,0.6,0.3,0.9,0.5l-0.5,0.5c-0.2-0.2-0.5-0.3-0.7-0.4s-0.5-0.1-0.7-0.1c-0.3,0-0.6,0.1-0.8,0.2
			s-0.3,0.4-0.3,0.7c0,0.2,0,0.3,0.1,0.5s0.2,0.2,0.4,0.3s0.5,0.2,0.9,0.3c0.4,0.1,0.7,0.2,1,0.4c0.3,0.1,0.5,0.3,0.6,0.6
			c0.2,0.2,0.2,0.6,0.2,0.9c0,0.4-0.1,0.7-0.3,1c-0.2,0.3-0.4,0.5-0.8,0.6S92.2,23,91.8,23c-0.9,0-1.6-0.3-2.1-0.8l0.5-0.5
			c0.3,0.2,0.5,0.4,0.8,0.5s0.5,0.2,0.9,0.2c0.4,0,0.7-0.1,1-0.3s0.4-0.5,0.4-0.8c0-0.2,0-0.4-0.1-0.5c-0.1-0.1-0.2-0.3-0.4-0.4
			c-0.2-0.1-0.5-0.2-0.8-0.3c-0.6-0.2-1.1-0.4-1.4-0.7s-0.4-0.6-0.4-1.1c0-0.3,0.1-0.6,0.2-0.8s0.4-0.4,0.7-0.6
			c0.3-0.1,0.6-0.2,1-0.2C92.3,16.6,92.7,16.7,92.9,16.8z"/>
		<path d="M97.6,22.7c-0.3,0.2-0.7,0.3-1.1,0.3c-0.4,0-0.7-0.1-0.9-0.3s-0.3-0.6-0.3-1v-2.9h-0.8v-0.6h0.8v-1.1l0.8-0.1v1.2h1.1
			l-0.1,0.6h-1v2.8c0,0.2,0,0.4,0.1,0.5c0.1,0.1,0.2,0.2,0.4,0.2c0.2,0,0.4-0.1,0.6-0.2L97.6,22.7z"/>
		<path d="M101.7,22.2c0.1,0.1,0.2,0.2,0.3,0.2l-0.2,0.6c-0.2,0-0.4-0.1-0.6-0.2s-0.3-0.3-0.3-0.5c-0.3,0.5-0.8,0.7-1.4,0.7
			c-0.5,0-0.8-0.1-1.1-0.4c-0.3-0.3-0.4-0.6-0.4-1c0-0.5,0.2-0.9,0.5-1.2c0.4-0.3,0.9-0.4,1.5-0.4h0.7v-0.4c0-0.3-0.1-0.6-0.2-0.7
			s-0.4-0.2-0.7-0.2c-0.3,0-0.8,0.1-1.3,0.3l-0.2-0.6c0.6-0.2,1.1-0.3,1.6-0.3c0.6,0,1,0.1,1.3,0.4c0.3,0.3,0.4,0.7,0.4,1.2v2.2
			C101.6,22,101.6,22.1,101.7,22.2z M100.8,21.7v-1.1h-0.6c-0.9,0-1.3,0.3-1.3,1c0,0.3,0.1,0.5,0.2,0.6c0.1,0.1,0.3,0.2,0.6,0.2
			C100.1,22.4,100.5,22.2,100.8,21.7z"/>
		<path d="M105.7,22.7c-0.3,0.2-0.7,0.3-1.1,0.3c-0.4,0-0.7-0.1-0.9-0.3s-0.3-0.6-0.3-1v-2.9h-0.8v-0.6h0.8v-1.1l0.8-0.1v1.2h1.1
			l-0.1,0.6h-1v2.8c0,0.2,0,0.4,0.1,0.5c0.1,0.1,0.2,0.2,0.4,0.2c0.2,0,0.4-0.1,0.6-0.2L105.7,22.7z"/>
		<path d="M110,20.8h-3c0,0.5,0.2,0.9,0.4,1.2c0.2,0.2,0.5,0.4,0.9,0.4c0.2,0,0.4,0,0.6-0.1c0.2-0.1,0.4-0.2,0.6-0.3l0.4,0.5
			c-0.5,0.4-1.1,0.6-1.7,0.6c-0.7,0-1.2-0.2-1.5-0.6s-0.6-1-0.6-1.8c0-0.5,0.1-0.9,0.2-1.3c0.2-0.4,0.4-0.7,0.7-0.9
			c0.3-0.2,0.6-0.3,1-0.3c0.6,0,1.1,0.2,1.4,0.6s0.5,1,0.5,1.7C110,20.5,110,20.7,110,20.8z M109.2,20.2c0-0.5-0.1-0.8-0.3-1.1
			c-0.2-0.2-0.5-0.4-0.8-0.4c-0.7,0-1,0.5-1.1,1.5L109.2,20.2L109.2,20.2z"/>
		<path d="M117,18.5c0.2,0.3,0.4,0.6,0.4,1.1v3.4h-0.8v-3.3c0-0.6-0.2-0.9-0.7-0.9c-0.2,0-0.4,0.1-0.6,0.2c-0.2,0.1-0.3,0.3-0.5,0.6
			v3.4h-0.8v-3.3c0-0.6-0.2-0.9-0.7-0.9c-0.2,0-0.4,0.1-0.6,0.2c-0.2,0.1-0.3,0.3-0.5,0.6v3.4h-0.8v-4.7h0.7l0.1,0.7
			c0.4-0.5,0.8-0.8,1.4-0.8c0.3,0,0.5,0.1,0.8,0.2s0.4,0.4,0.4,0.6c0.2-0.3,0.4-0.5,0.6-0.6c0.2-0.1,0.5-0.2,0.8-0.2
			C116.5,18.1,116.8,18.2,117,18.5z"/>
		<path d="M122.6,20.8h-3c0,0.5,0.2,0.9,0.4,1.2c0.2,0.2,0.5,0.4,0.9,0.4c0.2,0,0.4,0,0.6-0.1c0.2-0.1,0.4-0.2,0.6-0.3l0.4,0.5
			c-0.5,0.4-1.1,0.6-1.7,0.6c-0.7,0-1.2-0.2-1.5-0.6s-0.6-1-0.6-1.8c0-0.5,0.1-0.9,0.2-1.3c0.2-0.4,0.4-0.7,0.7-0.9
			c0.3-0.2,0.6-0.3,1-0.3c0.6,0,1.1,0.2,1.4,0.6s0.5,1,0.5,1.7C122.6,20.5,122.6,20.7,122.6,20.8z M121.8,20.2
			c0-0.5-0.1-0.8-0.3-1.1c-0.2-0.2-0.5-0.4-0.8-0.4c-0.7,0-1,0.5-1.1,1.5L121.8,20.2L121.8,20.2z"/>
		<path d="M127.2,18.5c0.2,0.3,0.4,0.6,0.4,1.1v3.4h-0.8v-3.3c0-0.3-0.1-0.6-0.2-0.7c-0.1-0.1-0.3-0.2-0.6-0.2
			c-0.3,0-0.5,0.1-0.7,0.2c-0.2,0.1-0.4,0.4-0.5,0.6v3.4h-0.8v-4.7h0.7l0.1,0.7c0.2-0.3,0.4-0.5,0.6-0.6c0.2-0.1,0.5-0.2,0.8-0.2
			C126.6,18.1,126.9,18.2,127.2,18.5z"/>
		<path d="M131.6,22.7c-0.3,0.2-0.7,0.3-1.1,0.3c-0.4,0-0.7-0.1-0.9-0.3c-0.2-0.2-0.3-0.6-0.3-1v-2.9h-0.8v-0.6h0.8v-1.1l0.8-0.1
			v1.2h1.1l-0.1,0.6h-1v2.8c0,0.2,0,0.4,0.1,0.5c0.1,0.1,0.2,0.2,0.4,0.2c0.2,0,0.4-0.1,0.6-0.2L131.6,22.7z"/>
		<path d="M134.6,18.2c0.3,0.1,0.5,0.2,0.7,0.4l-0.4,0.5c-0.2-0.1-0.4-0.2-0.6-0.3c-0.2-0.1-0.4-0.1-0.6-0.1c-0.3,0-0.5,0.1-0.6,0.2
			c-0.2,0.1-0.2,0.3-0.2,0.5c0,0.2,0.1,0.3,0.2,0.5c0.1,0.1,0.4,0.2,0.8,0.3c0.5,0.1,0.9,0.3,1.2,0.5c0.3,0.2,0.4,0.5,0.4,0.9
			c0,0.5-0.2,0.8-0.5,1.1c-0.4,0.2-0.8,0.4-1.3,0.4c-0.7,0-1.3-0.2-1.8-0.6l0.4-0.5c0.4,0.3,0.8,0.5,1.3,0.5c0.3,0,0.6-0.1,0.7-0.2
			c0.2-0.1,0.3-0.3,0.3-0.5c0-0.2,0-0.3-0.1-0.4s-0.2-0.2-0.3-0.3c-0.2-0.1-0.4-0.2-0.7-0.2c-0.5-0.1-0.9-0.3-1.1-0.5
			c-0.2-0.2-0.3-0.5-0.3-0.8c0-0.2,0.1-0.5,0.2-0.7c0.1-0.2,0.4-0.4,0.6-0.5c0.3-0.1,0.6-0.2,0.9-0.2
			C134.1,18.1,134.4,18.1,134.6,18.2z"/>
	</g>
	<g>
		<rect x="80" y="76.2" class="st3" width="84.1" height="38.3"/>
		<path d="M84.5,77.8c0.3,0.1,0.6,0.3,0.9,0.5l-0.5,0.6c-0.4-0.3-0.9-0.5-1.3-0.5c-0.6,0-1,0.2-1.4,0.7s-0.5,1.1-0.5,2.1
			c0,0.9,0.2,1.6,0.5,2.1s0.8,0.7,1.4,0.7c0.3,0,0.5,0,0.8-0.1s0.5-0.2,0.7-0.4l0.5,0.6c-0.2,0.2-0.5,0.4-0.8,0.5
			c-0.3,0.1-0.7,0.2-1.1,0.2c-0.6,0-1.1-0.1-1.5-0.4c-0.4-0.3-0.8-0.7-1-1.2c-0.2-0.5-0.4-1.2-0.4-1.9c0-0.8,0.1-1.4,0.4-1.9
			c0.3-0.5,0.6-0.9,1-1.2c0.4-0.3,0.9-0.4,1.5-0.4C83.8,77.6,84.2,77.6,84.5,77.8z"/>
		<path d="M90.1,79.6c0.3,0.3,0.4,0.7,0.4,1.2v3.8h-0.9V81c0-0.4-0.1-0.6-0.2-0.8c-0.1-0.2-0.4-0.2-0.6-0.2c-0.3,0-0.5,0.1-0.7,0.2
			c-0.2,0.2-0.4,0.4-0.6,0.7v3.8h-0.9v-7.4l0.9-0.1v2.9c0.4-0.6,0.9-0.9,1.6-0.9C89.4,79.2,89.8,79.4,90.1,79.6z"/>
		<path d="M96.3,82.3h-3.4c0,0.6,0.2,1,0.4,1.3c0.3,0.3,0.6,0.4,1,0.4c0.3,0,0.5,0,0.7-0.1c0.2-0.1,0.4-0.2,0.7-0.3l0.4,0.5
			c-0.6,0.4-1.2,0.7-1.8,0.7c-0.7,0-1.3-0.2-1.7-0.7s-0.6-1.1-0.6-2c0-0.5,0.1-1,0.3-1.5c0.2-0.4,0.4-0.8,0.8-1
			c0.3-0.2,0.7-0.4,1.2-0.4c0.7,0,1.2,0.2,1.6,0.7c0.4,0.5,0.6,1.1,0.6,1.9C96.3,82,96.3,82.1,96.3,82.3z M95.4,81.5
			c0-0.5-0.1-0.9-0.3-1.2s-0.5-0.4-0.9-0.4c-0.8,0-1.2,0.6-1.2,1.7L95.4,81.5L95.4,81.5z"/>
		<path d="M100.5,79.3c0.3,0.1,0.5,0.2,0.8,0.4l-0.4,0.6c-0.2-0.1-0.4-0.2-0.5-0.3c-0.2-0.1-0.4-0.1-0.6-0.1c-0.4,0-0.8,0.2-1,0.5
			c-0.2,0.3-0.4,0.8-0.4,1.5s0.1,1.2,0.4,1.5c0.2,0.3,0.6,0.5,1,0.5c0.2,0,0.4,0,0.6-0.1s0.4-0.2,0.6-0.3l0.4,0.6
			c-0.5,0.4-1,0.6-1.6,0.6c-0.7,0-1.3-0.2-1.7-0.7s-0.6-1.1-0.6-2c0-0.6,0.1-1.1,0.3-1.5c0.2-0.4,0.5-0.7,0.8-1s0.8-0.4,1.2-0.4
			C100,79.2,100.3,79.3,100.5,79.3z"/>
		<path d="M103.5,77.1v7.5h-0.9v-7.4L103.5,77.1z M106.5,79.3l-1.9,2.3l2.2,2.9h-1.1l-2.1-2.9l1.9-2.4H106.5z"/>
		<path d="M116.3,79.3l-1.2,5.3h-1.3l-0.9-4.4l-1,4.4h-1.2l-1.2-5.3h0.9l1,4.6l1-4.6h1l1,4.6l1-4.6H116.3z"/>
		<path d="M121.1,79.6c0.3,0.3,0.4,0.7,0.4,1.2v3.8h-0.9V81c0-0.4-0.1-0.6-0.2-0.8s-0.4-0.2-0.6-0.2s-0.5,0.1-0.7,0.2
			c-0.2,0.2-0.4,0.4-0.6,0.7v3.8h-0.9v-7.4l0.9-0.1v2.9c0.4-0.6,0.9-0.9,1.6-0.9C120.4,79.2,120.8,79.4,121.1,79.6z"/>
		<path d="M127.3,82.3h-3.4c0,0.6,0.2,1,0.4,1.3c0.3,0.3,0.6,0.4,1,0.4c0.3,0,0.5,0,0.7-0.1c0.2-0.1,0.4-0.2,0.7-0.3l0.4,0.5
			c-0.6,0.4-1.2,0.7-1.8,0.7c-0.7,0-1.3-0.2-1.7-0.7c-0.4-0.5-0.6-1.1-0.6-2c0-0.5,0.1-1,0.3-1.5c0.2-0.4,0.4-0.8,0.8-1
			c0.3-0.2,0.7-0.4,1.2-0.4c0.7,0,1.2,0.2,1.6,0.7c0.4,0.5,0.6,1.1,0.6,1.9C127.3,82,127.3,82.1,127.3,82.3z M126.4,81.5
			c0-0.5-0.1-0.9-0.3-1.2s-0.5-0.4-0.9-0.4c-0.8,0-1.2,0.6-1.2,1.7L126.4,81.5L126.4,81.5z"/>
		<path d="M131.5,84.4c-0.3,0.2-0.7,0.4-1.2,0.4c-0.4,0-0.8-0.1-1-0.4c-0.3-0.3-0.4-0.6-0.4-1.1V80h-0.9v-0.7h0.9v-1.2l0.9-0.1v1.3
			h1.3l-0.1,0.7h-1.2v3.1c0,0.3,0,0.5,0.1,0.6c0.1,0.1,0.3,0.2,0.5,0.2c0.2,0,0.4-0.1,0.7-0.2L131.5,84.4z"/>
		<path d="M136,79.6c0.3,0.3,0.4,0.7,0.4,1.2v3.8h-0.9V81c0-0.4-0.1-0.6-0.2-0.8s-0.4-0.2-0.6-0.2s-0.5,0.1-0.7,0.2
			c-0.2,0.2-0.4,0.4-0.6,0.7v3.8h-0.9v-7.4l0.9-0.1v2.9c0.4-0.6,0.9-0.9,1.6-0.9C135.4,79.2,135.7,79.4,136,79.6z"/>
		<path d="M142.2,82.3h-3.4c0,0.6,0.2,1,0.4,1.3c0.3,0.3,0.6,0.4,1,0.4c0.3,0,0.5,0,0.7-0.1c0.2-0.1,0.4-0.2,0.7-0.3l0.4,0.5
			c-0.6,0.4-1.2,0.7-1.8,0.7c-0.7,0-1.3-0.2-1.7-0.7c-0.4-0.5-0.6-1.1-0.6-2c0-0.5,0.1-1,0.3-1.5c0.2-0.4,0.4-0.8,0.8-1
			c0.3-0.2,0.7-0.4,1.2-0.4c0.7,0,1.2,0.2,1.6,0.7c0.4,0.5,0.6,1.1,0.6,1.9C142.2,82,142.2,82.1,142.2,82.3z M141.3,81.5
			c0-0.5-0.1-0.9-0.3-1.2s-0.5-0.4-0.9-0.4c-0.8,0-1.2,0.6-1.2,1.7L141.3,81.5L141.3,81.5z"/>
		<path d="M146.5,79.3l-0.2,0.9c-0.2,0-0.3-0.1-0.5-0.1c-0.3,0-0.6,0.1-0.8,0.4c-0.2,0.2-0.4,0.6-0.5,1.1v3h-0.9v-5.3h0.8l0.1,1.1
			c0.1-0.4,0.3-0.7,0.6-0.9c0.2-0.2,0.5-0.3,0.8-0.3C146.2,79.2,146.4,79.2,146.5,79.3z"/>
		<path d="M83.6,96.4c-0.3,0.2-0.7,0.4-1.2,0.4c-0.4,0-0.8-0.1-1-0.4c-0.3-0.3-0.4-0.6-0.4-1.1V92h-0.9v-0.7H81v-1.2l0.9-0.1v1.3
			h1.3L83.1,92h-1.1v3.1c0,0.3,0,0.5,0.1,0.6c0.1,0.1,0.3,0.2,0.5,0.2c0.2,0,0.4-0.1,0.7-0.2L83.6,96.4z"/>
		<path d="M88.2,91.6c0.3,0.3,0.4,0.7,0.4,1.2v3.8h-0.9V93c0-0.4-0.1-0.6-0.2-0.8c-0.1-0.2-0.4-0.2-0.6-0.2c-0.3,0-0.5,0.1-0.7,0.2
			c-0.2,0.2-0.4,0.4-0.6,0.7v3.8h-0.9v-7.4l0.9-0.1v2.9c0.4-0.6,0.9-0.9,1.6-0.9C87.5,91.2,87.9,91.4,88.2,91.6z"/>
		<path d="M94.4,94.3H91c0,0.6,0.2,1,0.4,1.3c0.3,0.3,0.6,0.4,1,0.4c0.3,0,0.5,0,0.7-0.1s0.4-0.2,0.7-0.3l0.4,0.5
			c-0.6,0.4-1.2,0.7-1.8,0.7c-0.7,0-1.3-0.2-1.7-0.7c-0.4-0.5-0.6-1.1-0.6-2c0-0.5,0.1-1,0.3-1.5c0.2-0.4,0.4-0.8,0.8-1
			c0.3-0.2,0.7-0.4,1.2-0.4c0.7,0,1.2,0.2,1.6,0.7c0.4,0.5,0.6,1.1,0.6,1.9C94.4,94,94.4,94.1,94.4,94.3z M93.5,93.5
			c0-0.5-0.1-0.9-0.3-1.2s-0.5-0.4-0.9-0.4c-0.8,0-1.2,0.6-1.2,1.7L93.5,93.5L93.5,93.5z"/>
		<path d="M101.3,91.3c0.3,0.1,0.5,0.2,0.8,0.4l-0.4,0.6c-0.2-0.1-0.4-0.2-0.5-0.3c-0.2-0.1-0.4-0.1-0.6-0.1c-0.4,0-0.8,0.2-1,0.5
			c-0.2,0.3-0.4,0.8-0.4,1.5s0.1,1.2,0.4,1.5c0.2,0.3,0.6,0.5,1,0.5c0.2,0,0.4,0,0.6-0.1s0.4-0.2,0.6-0.3l0.4,0.6
			c-0.5,0.4-1,0.6-1.6,0.6c-0.7,0-1.3-0.2-1.7-0.7c-0.4-0.5-0.6-1.1-0.6-2c0-0.6,0.1-1.1,0.3-1.5c0.2-0.4,0.5-0.7,0.8-1
			s0.8-0.4,1.2-0.4C100.8,91.2,101,91.3,101.3,91.3z"/>
		<path d="M106.8,92c0.4,0.5,0.6,1.2,0.6,2c0,0.5-0.1,1-0.3,1.4c-0.2,0.4-0.5,0.7-0.8,1c-0.4,0.2-0.8,0.3-1.3,0.3
			c-0.7,0-1.3-0.2-1.7-0.7s-0.6-1.2-0.6-2c0-0.5,0.1-1,0.3-1.4c0.2-0.4,0.5-0.7,0.8-1c0.4-0.2,0.8-0.3,1.3-0.3
			C105.8,91.2,106.4,91.5,106.8,92z M103.7,94c0,1.3,0.5,2,1.4,2s1.4-0.7,1.4-2c0-1.3-0.4-2-1.3-2C104.2,92,103.7,92.6,103.7,94z"/>
		<path d="M112.5,91.6c0.3,0.3,0.4,0.7,0.4,1.2v3.8H112V93c0-0.4-0.1-0.6-0.2-0.8c-0.1-0.2-0.3-0.2-0.6-0.2c-0.3,0-0.5,0.1-0.7,0.2
			c-0.2,0.2-0.4,0.4-0.6,0.7v3.7h-0.9v-5.3h0.8l0.1,0.8c0.2-0.3,0.4-0.5,0.7-0.7c0.3-0.2,0.6-0.2,0.9-0.2
			C111.9,91.2,112.3,91.4,112.5,91.6z"/>
		<path d="M118.9,89.2v7.4h-0.8l-0.1-0.7c-0.2,0.3-0.4,0.5-0.6,0.6c-0.3,0.2-0.6,0.2-0.9,0.2c-0.6,0-1.1-0.2-1.5-0.7
			c-0.3-0.5-0.5-1.2-0.5-2c0-0.5,0.1-1,0.3-1.4c0.2-0.4,0.4-0.7,0.7-1c0.3-0.2,0.7-0.4,1.1-0.4c0.5,0,1,0.2,1.4,0.6v-2.8L118.9,89.2
			z M117.4,95.8c0.2-0.1,0.4-0.3,0.6-0.6v-2.6c-0.2-0.2-0.4-0.4-0.6-0.5c-0.2-0.1-0.4-0.2-0.7-0.2c-0.4,0-0.7,0.2-0.9,0.5
			c-0.2,0.3-0.3,0.8-0.3,1.5c0,0.7,0.1,1.2,0.3,1.5c0.2,0.3,0.5,0.5,0.9,0.5C116.9,96,117.2,95.9,117.4,95.8z"/>
		<path d="M121.7,89c0.1,0.1,0.2,0.3,0.2,0.5c0,0.2-0.1,0.3-0.2,0.4s-0.3,0.2-0.5,0.2c-0.2,0-0.3-0.1-0.5-0.2
			c-0.1-0.1-0.2-0.3-0.2-0.4c0-0.2,0.1-0.3,0.2-0.5c0.1-0.1,0.3-0.2,0.5-0.2C121.4,88.8,121.6,88.9,121.7,89z M121.7,91.3v5.3h-0.9
			v-5.3H121.7z"/>
		<path d="M126.3,96.4c-0.3,0.2-0.7,0.4-1.2,0.4c-0.4,0-0.8-0.1-1-0.4c-0.3-0.3-0.4-0.6-0.4-1.1V92h-0.9v-0.7h0.9v-1.2l0.9-0.1v1.3
			h1.3l-0.1,0.7h-1.2v3.1c0,0.3,0,0.5,0.1,0.6s0.3,0.2,0.5,0.2c0.2,0,0.4-0.1,0.7-0.2L126.3,96.4z"/>
		<path d="M128.1,89c0.1,0.1,0.2,0.3,0.2,0.5c0,0.2-0.1,0.3-0.2,0.4s-0.3,0.2-0.5,0.2c-0.2,0-0.3-0.1-0.5-0.2
			c-0.1-0.1-0.2-0.3-0.2-0.4c0-0.2,0.1-0.3,0.2-0.5c0.1-0.1,0.3-0.2,0.5-0.2C127.9,88.8,128,88.9,128.1,89z M128.1,91.3v5.3h-0.9
			v-5.3H128.1z"/>
		<path d="M133.7,92c0.4,0.5,0.6,1.2,0.6,2c0,0.5-0.1,1-0.3,1.4c-0.2,0.4-0.5,0.7-0.8,1c-0.4,0.2-0.8,0.3-1.3,0.3
			c-0.7,0-1.3-0.2-1.7-0.7c-0.4-0.5-0.6-1.2-0.6-2c0-0.5,0.1-1,0.3-1.4c0.2-0.4,0.5-0.7,0.8-1s0.8-0.3,1.3-0.3
			C132.8,91.2,133.3,91.5,133.7,92z M130.6,94c0,1.3,0.5,2,1.4,2s1.4-0.7,1.4-2c0-1.3-0.5-2-1.4-2C131.1,92,130.6,92.6,130.6,94z"/>
		<path d="M139.5,91.6c0.3,0.3,0.4,0.7,0.4,1.2v3.8H139V93c0-0.4-0.1-0.6-0.2-0.8s-0.3-0.2-0.6-0.2c-0.3,0-0.5,0.1-0.7,0.2
			c-0.2,0.2-0.4,0.4-0.6,0.7v3.7h-0.9v-5.3h0.8l0.1,0.8c0.2-0.3,0.4-0.5,0.7-0.7c0.3-0.2,0.6-0.2,0.9-0.2
			C138.8,91.2,139.2,91.4,139.5,91.6z"/>
		<path d="M81.9,101c0.1,0.1,0.2,0.3,0.2,0.5c0,0.2-0.1,0.3-0.2,0.4c-0.1,0.1-0.3,0.2-0.5,0.2c-0.2,0-0.3-0.1-0.5-0.2
			c-0.1-0.1-0.2-0.3-0.2-0.4c0-0.2,0.1-0.3,0.2-0.5s0.3-0.2,0.5-0.2C81.6,100.8,81.8,100.9,81.9,101z M81.9,103.3v5.3H81v-5.3H81.9z
			"/>
		<path d="M86.2,103.4c0.3,0.1,0.6,0.3,0.8,0.5l-0.4,0.6c-0.2-0.2-0.5-0.3-0.7-0.3c-0.2-0.1-0.4-0.1-0.7-0.1c-0.3,0-0.5,0.1-0.7,0.2
			c-0.2,0.1-0.3,0.3-0.3,0.5c0,0.2,0.1,0.4,0.2,0.5c0.2,0.1,0.5,0.2,0.9,0.3c0.6,0.1,1,0.3,1.3,0.6c0.3,0.3,0.4,0.6,0.4,1
			c0,0.5-0.2,0.9-0.6,1.2s-0.9,0.4-1.5,0.4c-0.8,0-1.5-0.2-2-0.7l0.5-0.6c0.4,0.3,0.9,0.5,1.5,0.5c0.3,0,0.6-0.1,0.8-0.2
			s0.3-0.3,0.3-0.6c0-0.2,0-0.3-0.1-0.4c-0.1-0.1-0.2-0.2-0.4-0.3c-0.2-0.1-0.4-0.2-0.8-0.3c-0.6-0.1-1-0.3-1.2-0.6
			c-0.3-0.2-0.4-0.6-0.4-0.9c0-0.3,0.1-0.5,0.2-0.7c0.2-0.2,0.4-0.4,0.7-0.5c0.3-0.1,0.6-0.2,1-0.2
			C85.6,103.2,85.9,103.3,86.2,103.4z"/>
		<path d="M93.7,108.4c-0.3,0.2-0.7,0.4-1.2,0.4c-0.4,0-0.8-0.1-1-0.4s-0.4-0.6-0.4-1.1V104h-0.9v-0.7h0.9v-1.2l0.9-0.1v1.3h1.3
			l-0.1,0.7h-1.1v3.1c0,0.3,0,0.5,0.1,0.6c0.1,0.1,0.3,0.2,0.5,0.2c0.2,0,0.4-0.1,0.7-0.2L93.7,108.4z"/>
		<path d="M97.5,103.3l-0.2,0.9c-0.2,0-0.3-0.1-0.5-0.1c-0.3,0-0.6,0.1-0.8,0.4c-0.2,0.2-0.4,0.6-0.5,1.1v3h-0.9v-5.3h0.8l0.1,1.1
			c0.1-0.4,0.3-0.7,0.6-0.9c0.2-0.2,0.5-0.3,0.8-0.3C97.2,103.2,97.3,103.2,97.5,103.3z"/>
		<path d="M102.5,108.6h-0.8l-0.1-0.8c-0.2,0.3-0.4,0.6-0.7,0.7c-0.3,0.2-0.6,0.2-0.9,0.2c-0.5,0-0.8-0.1-1.1-0.4
			c-0.3-0.3-0.4-0.7-0.4-1.2v-3.8h0.9v3.7c0,0.4,0.1,0.6,0.2,0.8c0.1,0.2,0.3,0.2,0.6,0.2c0.5,0,1-0.3,1.3-0.9v-3.8h0.9V108.6z"/>
		<path d="M108.3,106.3H105c0,0.6,0.2,1,0.4,1.3c0.3,0.3,0.6,0.4,1,0.4c0.3,0,0.5,0,0.7-0.1s0.4-0.2,0.7-0.3l0.4,0.5
			c-0.6,0.4-1.2,0.7-1.8,0.7c-0.7,0-1.3-0.2-1.7-0.7c-0.4-0.5-0.6-1.1-0.6-2c0-0.5,0.1-1,0.3-1.5c0.2-0.4,0.4-0.8,0.8-1
			c0.3-0.2,0.7-0.4,1.2-0.4c0.7,0,1.2,0.2,1.6,0.7c0.4,0.5,0.6,1.1,0.6,1.9C108.4,106,108.4,106.1,108.3,106.3z M107.4,105.5
			c0-0.5-0.1-0.9-0.3-1.2s-0.5-0.4-0.9-0.4c-0.8,0-1.2,0.6-1.2,1.7L107.4,105.5L107.4,105.5z"/>
	</g>
	<g>
		<rect x="168.4" y="55.4" class="st3" width="29.2" height="23.5"/>
		<path d="M174.5,57.3l-0.1,1h-2.3v7.3h-1.1v-7.3h-2.4v-1H174.5z"/>
		<path d="M178.8,59.2l-0.2,1.1c-0.2,0-0.4-0.1-0.6-0.1c-0.4,0-0.7,0.1-0.9,0.4c-0.2,0.3-0.4,0.7-0.6,1.3v3.6h-1.1v-6.3h0.9l0.1,1.3
			c0.2-0.5,0.4-0.8,0.7-1.1c0.3-0.2,0.6-0.4,1-0.4C178.4,59.1,178.6,59.1,178.8,59.2z"/>
		<path d="M184.7,65.6h-0.9l-0.1-1c-0.2,0.4-0.5,0.7-0.8,0.9c-0.3,0.2-0.7,0.3-1.1,0.3c-0.6,0-1-0.2-1.3-0.5
			c-0.3-0.3-0.5-0.8-0.5-1.4v-4.5h1.1v4.4c0,0.4,0.1,0.7,0.2,0.9c0.2,0.2,0.4,0.3,0.7,0.3c0.6,0,1.1-0.4,1.6-1.1v-4.5h1.1V65.6z"/>
		<path d="M191.8,62.8h-4c0,0.7,0.2,1.2,0.5,1.5c0.3,0.3,0.7,0.5,1.2,0.5c0.3,0,0.6,0,0.8-0.1c0.3-0.1,0.5-0.2,0.8-0.4l0.5,0.7
			c-0.7,0.5-1.4,0.8-2.2,0.8c-0.9,0-1.6-0.3-2.1-0.9c-0.5-0.6-0.7-1.4-0.7-2.4c0-0.7,0.1-1.2,0.3-1.7c0.2-0.5,0.5-0.9,0.9-1.2
			c0.4-0.3,0.9-0.4,1.4-0.4c0.8,0,1.5,0.3,1.9,0.8c0.4,0.6,0.7,1.3,0.7,2.3C191.8,62.4,191.8,62.6,191.8,62.8z M190.7,61.9
			c0-0.6-0.1-1.1-0.4-1.4c-0.2-0.3-0.6-0.5-1.1-0.5c-0.9,0-1.4,0.7-1.5,2L190.7,61.9L190.7,61.9z"/>
	</g>
	<g>
		<rect x="117.1" y="138" class="st3" width="32.7" height="12.3"/>
		<path d="M118.3,148.1v-8.3h4.4l-0.1,0.9h-3.1v2.8h2.7v0.9h-2.7v3.6H118.3z"/>
		<path d="M127.9,147.2c0.1,0.1,0.2,0.2,0.4,0.3l-0.3,0.8c-0.3,0-0.6-0.1-0.8-0.3c-0.2-0.1-0.3-0.4-0.4-0.7
			c-0.4,0.6-1.1,0.9-1.9,0.9c-0.6,0-1.1-0.2-1.5-0.5c-0.4-0.4-0.5-0.8-0.5-1.4c0-0.7,0.2-1.2,0.7-1.5c0.5-0.4,1.2-0.5,2.1-0.5h1
			v-0.5c0-0.4-0.1-0.8-0.3-1c-0.2-0.2-0.5-0.3-1-0.3c-0.5,0-1,0.1-1.7,0.3l-0.3-0.8c0.8-0.3,1.5-0.4,2.2-0.4c0.7,0,1.3,0.2,1.7,0.5
			s0.6,0.9,0.6,1.6v2.9C127.7,146.9,127.8,147.1,127.9,147.2z M126.6,146.4V145h-0.8c-1.2,0-1.8,0.4-1.8,1.3c0,0.4,0.1,0.7,0.3,0.9
			c0.2,0.2,0.5,0.3,0.8,0.3C125.8,147.4,126.3,147.1,126.6,146.4z"/>
		<path d="M130.2,147.9c-0.2-0.2-0.4-0.6-0.4-1v-7.6l1.1-0.1v7.7c0,0.2,0,0.3,0.1,0.4c0.1,0.1,0.2,0.1,0.3,0.1c0.2,0,0.3,0,0.4-0.1
			l0.3,0.8c-0.3,0.1-0.6,0.2-0.9,0.2C130.7,148.2,130.4,148.1,130.2,147.9z"/>
		<path d="M136.3,141.8c0.3,0.1,0.7,0.3,1,0.5l-0.5,0.7c-0.3-0.2-0.6-0.3-0.8-0.4s-0.5-0.1-0.8-0.1c-0.4,0-0.6,0.1-0.9,0.2
			c-0.2,0.1-0.3,0.4-0.3,0.6s0.1,0.5,0.3,0.6c0.2,0.1,0.5,0.3,1.1,0.4c0.7,0.2,1.2,0.4,1.6,0.7c0.3,0.3,0.5,0.7,0.5,1.2
			c0,0.6-0.2,1.1-0.7,1.4s-1.1,0.5-1.8,0.5c-1,0-1.8-0.3-2.4-0.8l0.6-0.7c0.5,0.4,1.1,0.6,1.8,0.6c0.4,0,0.7-0.1,1-0.3
			c0.2-0.2,0.4-0.4,0.4-0.7c0-0.2,0-0.4-0.1-0.5c-0.1-0.1-0.2-0.2-0.5-0.3c-0.2-0.1-0.5-0.2-0.9-0.3c-0.7-0.2-1.2-0.4-1.5-0.7
			c-0.3-0.3-0.5-0.7-0.5-1.1c0-0.3,0.1-0.6,0.3-0.9c0.2-0.3,0.5-0.5,0.8-0.6c0.3-0.1,0.7-0.2,1.2-0.2
			C135.5,141.6,135.9,141.7,136.3,141.8z"/>
		<path d="M143.7,145.3h-4c0,0.7,0.2,1.2,0.5,1.5c0.3,0.3,0.7,0.5,1.2,0.5c0.3,0,0.6,0,0.8-0.1c0.3-0.1,0.5-0.2,0.8-0.4l0.5,0.7
			c-0.7,0.5-1.4,0.8-2.2,0.8c-0.9,0-1.6-0.3-2.1-0.9s-0.7-1.4-0.7-2.4c0-0.7,0.1-1.2,0.3-1.7s0.5-0.9,0.9-1.2
			c0.4-0.3,0.9-0.4,1.4-0.4c0.8,0,1.5,0.3,1.9,0.8c0.4,0.6,0.7,1.3,0.7,2.3C143.8,144.9,143.8,145.1,143.7,145.3z M142.7,144.4
			c0-0.6-0.1-1.1-0.4-1.4s-0.6-0.5-1.1-0.5c-0.9,0-1.4,0.7-1.5,2L142.7,144.4L142.7,144.4z"/>
	</g>
	<g>
		<rect x="99.6" y="166.8" class="st3" width="35.1" height="11.9"/>
		<path d="M105.3,168.7l-0.1,0.9H102v2.7h2.8v0.9H102v2.8h3.4v0.9h-4.6v-8.3H105.3z"/>
		<path d="M111.4,171c0.3,0.3,0.5,0.8,0.5,1.4v4.5h-1.1v-4.4c0-0.4-0.1-0.8-0.3-0.9c-0.2-0.2-0.4-0.3-0.7-0.3
			c-0.3,0-0.6,0.1-0.9,0.3c-0.3,0.2-0.5,0.5-0.7,0.8v4.5h-1.1v-6.3h0.9l0.1,0.9c0.2-0.3,0.5-0.6,0.8-0.8c0.3-0.2,0.7-0.3,1.1-0.3
			C110.6,170.5,111.1,170.7,111.4,171z"/>
		<path d="M119,168.1v8.9h-1l-0.1-0.9c-0.2,0.3-0.5,0.6-0.8,0.8c-0.3,0.2-0.7,0.3-1,0.3c-0.8,0-1.3-0.3-1.8-0.9s-0.6-1.4-0.6-2.4
			c0-0.6,0.1-1.2,0.3-1.7s0.5-0.9,0.9-1.2s0.8-0.4,1.3-0.4c0.6,0,1.2,0.3,1.7,0.8V168L119,168.1z M117.2,176
			c0.2-0.2,0.5-0.4,0.7-0.7v-3.1c-0.2-0.3-0.4-0.5-0.7-0.6c-0.2-0.1-0.5-0.2-0.8-0.2c-0.5,0-0.9,0.2-1.1,0.6c-0.3,0.4-0.4,1-0.4,1.8
			c0,0.8,0.1,1.4,0.4,1.8s0.6,0.6,1.1,0.6C116.7,176.2,116.9,176.2,117.2,176z"/>
	</g>
</g>
<g>
</g>
<g>
</g>
<g>
</g>
<g>
</g>
<g>
</g>
<g>
</g>
<g>
</g>
<g>
</g>
<g>
</g>
<g>
</g>
<g>
</g>
<g>
</g>
<g>
</g>
<g>
</g>
<g>
</g>
<g>
</g>
</svg>
