<?xml version="1.0" encoding="utf-8"?>
<!-- Generator: Adobe Illustrator 24.1.3, SVG Export Plug-In . SVG Version: 6.00 Build 0)  -->
<svg version="1.1" id="svg149" xmlns:svg="http://www.w3.org/2000/svg"
	 xmlns="http://www.w3.org/2000/svg" xmlns:xlink="http://www.w3.org/1999/xlink" x="0px" y="0px" viewBox="0 0 243.3 244.3"
	 style="enable-background:new 0 0 243.3 244.3;" xml:space="preserve">
<style type="text/css">
	.st0{fill:none;stroke:#000000;stroke-width:0.3985;stroke-miterlimit:10;}
	.st1{clip-path:url(#SVGID_2_);}
	.st2{fill:none;stroke:#000000;stroke-width:0.3188;stroke-linecap:round;stroke-linejoin:round;stroke-miterlimit:10;}
	.st3{fill:none;}
</style>
<g id="surface1">
	<path id="path66" class="st0" d="M52.9,136.5H4.2c-2.2,0-4,1.8-4,4v20.4c0,2.2,1.8,4,4,4h48.7c2.2,0,4-1.8,4-4v-20.4
		C56.9,138.3,55.1,136.5,52.9,136.5z"/>
	<path id="path76" class="st0" d="M194.6,150.7l-54.4-36.3l-54.4,36.3l54.4,36.3L194.6,150.7z"/>
	<path id="path92" class="st0" d="M111.8,85.6h56.7V57.3h-56.7V85.6z"/>
	<path id="path100" class="st0" d="M111.8,28.6h56.7V0.2h-56.7V28.6z"/>
	<g>
		<defs>
			<rect id="SVGID_1_" x="106" y="210" width="69" height="34.3"/>
		</defs>
		<clipPath id="SVGID_2_">
			<use xlink:href="#SVGID_1_"  style="overflow:visible;"/>
		</clipPath>
		<g id="g112" class="st1">
			<path id="path110" class="st0" d="M164.5,215.8h-48.7c-2.2,0-4,1.8-4,4v20.4c0,2.2,1.8,4,4,4h48.7c2.2,0,4-1.8,4-4v-20.4
				C168.5,217.6,166.7,215.8,164.5,215.8z"/>
		</g>
	</g>
	<g>
		<path d="M135.8,226.8l-0.1,0.7h-2.4v2h2.1v0.7h-2.1v2.1h2.6v0.7h-3.4v-6.2H135.8z"/>
		<path d="M140.3,228.5c0.2,0.3,0.4,0.6,0.4,1.1v3.4h-0.8v-3.3c0-0.3-0.1-0.6-0.2-0.7c-0.1-0.1-0.3-0.2-0.6-0.2
			c-0.3,0-0.5,0.1-0.7,0.2c-0.2,0.1-0.4,0.4-0.5,0.6v3.4h-0.8v-4.7h0.7l0.1,0.7c0.2-0.3,0.4-0.5,0.6-0.6c0.2-0.1,0.5-0.2,0.8-0.2
			C139.8,228.1,140.1,228.2,140.3,228.5z"/>
		<path d="M146,226.3v6.7h-0.7l-0.1-0.7c-0.2,0.2-0.4,0.4-0.6,0.6c-0.2,0.1-0.5,0.2-0.8,0.2c-0.6,0-1-0.2-1.3-0.7
			c-0.3-0.4-0.5-1-0.5-1.8c0-0.5,0.1-0.9,0.2-1.3c0.1-0.4,0.4-0.7,0.6-0.9s0.6-0.3,1-0.3c0.5,0,0.9,0.2,1.3,0.6v-2.5L146,226.3z
			 M144.7,232.2c0.2-0.1,0.4-0.3,0.5-0.5v-2.3c-0.2-0.2-0.3-0.4-0.5-0.5c-0.2-0.1-0.4-0.2-0.6-0.2c-0.4,0-0.6,0.2-0.8,0.5
			c-0.2,0.3-0.3,0.8-0.3,1.4c0,0.6,0.1,1.1,0.3,1.4c0.2,0.3,0.5,0.5,0.8,0.5C144.3,232.4,144.5,232.3,144.7,232.2z"/>
	</g>
	<path id="path120" class="st0" d="M57.1,150.7H85"/>
	<path id="path122" class="st2" d="M83.8,149.1c0.1,0.6,1.2,1.5,1.5,1.6c-0.3,0.1-1.4,1-1.5,1.6"/>
	<path id="path124" class="st0" d="M140.1,28.8v27.9"/>
	<path id="path126" class="st2" d="M141.7,55.4c-0.6,0.1-1.5,1.2-1.6,1.5c-0.1-0.3-1-1.4-1.6-1.5"/>
	<path id="path128" class="st0" d="M140.1,85.8v27.9"/>
	<path id="path130" class="st2" d="M141.7,112.5c-0.6,0.1-1.5,1.2-1.6,1.5c-0.1-0.3-1-1.4-1.6-1.5"/>
	<path id="path132" class="st0" d="M194.8,150.7h28.3V14.4h-54"/>
	<path id="path134" class="st2" d="M170.3,16c-0.1-0.6-1.2-1.5-1.5-1.6c0.3-0.1,1.4-1,1.5-1.6"/>
	<path id="path140" class="st0" d="M140.1,187.3v27.9"/>
	<path id="path142" class="st2" d="M141.7,213.9c-0.6,0.1-1.5,1.2-1.6,1.5c-0.1-0.3-1-1.4-1.6-1.5"/>
	<g>
		<rect x="2.5" y="141.4" class="st3" width="51.7" height="19.1"/>
		<path d="M4.2,142.8v6.2H3.4v-6.2H4.2z"/>
		<path d="M9.2,144.5c0.2,0.3,0.4,0.6,0.4,1.1v3.4H8.8v-3.3c0-0.3-0.1-0.6-0.2-0.7c-0.1-0.1-0.3-0.2-0.6-0.2c-0.3,0-0.5,0.1-0.7,0.2
			c-0.2,0.1-0.4,0.4-0.5,0.6v3.4H6v-4.7h0.7l0.1,0.7c0.2-0.3,0.4-0.5,0.6-0.6c0.2-0.1,0.5-0.2,0.8-0.2C8.7,144.1,9,144.3,9.2,144.5z
			"/>
		<path d="M12.1,142.1c0.1,0.1,0.2,0.2,0.2,0.4s-0.1,0.3-0.2,0.4c-0.1,0.1-0.2,0.2-0.4,0.2c-0.2,0-0.3-0.1-0.4-0.2
			c-0.1-0.1-0.2-0.2-0.2-0.4s0.1-0.3,0.2-0.4c0.1-0.1,0.2-0.2,0.4-0.2C11.9,142,12,142,12.1,142.1z M12.1,144.2v4.7h-0.8v-4.7H12.1z
			"/>
		<path d="M16.2,148.8c-0.3,0.2-0.7,0.3-1.1,0.3c-0.4,0-0.7-0.1-0.9-0.3c-0.2-0.2-0.3-0.6-0.3-1v-2.9H13v-0.6h0.8v-1.1l0.8-0.1v1.2
			h1.1l-0.1,0.6h-1v2.8c0,0.2,0,0.4,0.1,0.5c0.1,0.1,0.2,0.2,0.4,0.2c0.2,0,0.4-0.1,0.6-0.2L16.2,148.8z"/>
		<path d="M16.4,146.5v-0.7h2.5v0.7H16.4z"/>
		<path d="M5.5,155.1c0.3,0.1,0.5,0.2,0.7,0.4L5.9,156c-0.2-0.1-0.4-0.2-0.6-0.3c-0.2-0.1-0.4-0.1-0.6-0.1c-0.3,0-0.5,0.1-0.6,0.2
			c-0.2,0.1-0.2,0.3-0.2,0.5c0,0.2,0.1,0.3,0.2,0.5s0.4,0.2,0.8,0.3c0.5,0.1,0.9,0.3,1.2,0.5c0.3,0.2,0.4,0.5,0.4,0.9
			c0,0.5-0.2,0.8-0.5,1.1c-0.4,0.2-0.8,0.4-1.3,0.4c-0.7,0-1.3-0.2-1.8-0.6l0.4-0.5c0.4,0.3,0.8,0.5,1.3,0.5c0.3,0,0.6-0.1,0.7-0.2
			c0.2-0.1,0.3-0.3,0.3-0.5c0-0.2,0-0.3-0.1-0.4c-0.1-0.1-0.2-0.2-0.3-0.3c-0.2-0.1-0.4-0.2-0.7-0.2c-0.5-0.1-0.9-0.3-1.1-0.5
			c-0.2-0.2-0.3-0.5-0.3-0.8c0-0.2,0.1-0.5,0.2-0.7c0.1-0.2,0.4-0.4,0.6-0.5c0.3-0.1,0.6-0.2,0.9-0.2C5,154.9,5.2,155,5.5,155.1z"/>
		<path d="M9.9,159.6c-0.3,0.2-0.7,0.3-1.1,0.3c-0.4,0-0.7-0.1-0.9-0.3c-0.2-0.2-0.3-0.6-0.3-1v-2.9H6.8V155h0.8V154l0.8-0.1v1.2
			h1.1l-0.1,0.6h-1v2.8c0,0.2,0,0.4,0.1,0.5c0.1,0.1,0.2,0.2,0.4,0.2c0.2,0,0.4-0.1,0.6-0.2L9.9,159.6z"/>
		<path d="M14,159.1c0.1,0.1,0.2,0.2,0.3,0.2l-0.2,0.6c-0.2,0-0.4-0.1-0.6-0.2c-0.1-0.1-0.3-0.3-0.3-0.5c-0.3,0.5-0.8,0.7-1.4,0.7
			c-0.5,0-0.8-0.1-1.1-0.4c-0.3-0.3-0.4-0.6-0.4-1c0-0.5,0.2-0.9,0.5-1.2c0.4-0.3,0.9-0.4,1.5-0.4h0.7v-0.4c0-0.3-0.1-0.6-0.2-0.7
			s-0.4-0.2-0.7-0.2c-0.3,0-0.8,0.1-1.3,0.3l-0.2-0.6c0.6-0.2,1.1-0.3,1.6-0.3c0.6,0,1,0.1,1.3,0.4c0.3,0.3,0.4,0.7,0.4,1.2v2.2
			C13.9,158.9,14,159,14,159.1z M13.1,158.5v-1.1h-0.6c-0.9,0-1.3,0.3-1.3,1c0,0.3,0.1,0.5,0.2,0.6c0.1,0.1,0.3,0.2,0.6,0.2
			C12.5,159.3,12.8,159,13.1,158.5z"/>
		<path d="M18,159.6c-0.3,0.2-0.7,0.3-1.1,0.3c-0.4,0-0.7-0.1-0.9-0.3c-0.2-0.2-0.3-0.6-0.3-1v-2.9h-0.8V155h0.8V154l0.8-0.1v1.2
			h1.1l-0.1,0.6h-1v2.8c0,0.2,0,0.4,0.1,0.5c0.1,0.1,0.2,0.2,0.4,0.2c0.2,0,0.4-0.1,0.6-0.2L18,159.6z"/>
		<path d="M22.3,157.7h-3c0,0.5,0.2,0.9,0.4,1.2s0.5,0.4,0.9,0.4c0.2,0,0.4,0,0.6-0.1c0.2-0.1,0.4-0.2,0.6-0.3l0.4,0.5
			c-0.5,0.4-1.1,0.6-1.7,0.6c-0.7,0-1.2-0.2-1.5-0.6s-0.6-1-0.6-1.8c0-0.5,0.1-0.9,0.2-1.3c0.2-0.4,0.4-0.7,0.7-0.9
			c0.3-0.2,0.6-0.3,1-0.3c0.6,0,1.1,0.2,1.4,0.6c0.3,0.4,0.5,1,0.5,1.7C22.3,157.4,22.3,157.6,22.3,157.7z M21.5,157
			c0-0.5-0.1-0.8-0.3-1.1s-0.5-0.4-0.8-0.4c-0.7,0-1,0.5-1.1,1.5L21.5,157L21.5,157z"/>
		<path d="M29.3,155.3c0.2,0.3,0.4,0.6,0.4,1.1v3.4h-0.8v-3.3c0-0.6-0.2-0.9-0.7-0.9c-0.2,0-0.4,0.1-0.6,0.2
			c-0.2,0.1-0.3,0.3-0.5,0.6v3.4h-0.8v-3.3c0-0.6-0.2-0.9-0.7-0.9c-0.2,0-0.4,0.1-0.6,0.2c-0.2,0.1-0.3,0.3-0.5,0.6v3.4h-0.8V155
			h0.7l0.1,0.7c0.4-0.5,0.8-0.8,1.4-0.8c0.3,0,0.5,0.1,0.8,0.2s0.4,0.4,0.4,0.6c0.2-0.3,0.4-0.5,0.6-0.6c0.2-0.1,0.5-0.2,0.8-0.2
			C28.8,154.9,29.1,155.1,29.3,155.3z"/>
		<path d="M34.9,157.7h-3c0,0.5,0.2,0.9,0.4,1.2s0.5,0.4,0.9,0.4c0.2,0,0.4,0,0.6-0.1c0.2-0.1,0.4-0.2,0.6-0.3l0.4,0.5
			c-0.5,0.4-1.1,0.6-1.7,0.6c-0.7,0-1.2-0.2-1.5-0.6s-0.6-1-0.6-1.8c0-0.5,0.1-0.9,0.2-1.3c0.2-0.4,0.4-0.7,0.7-0.9
			c0.3-0.2,0.6-0.3,1-0.3c0.6,0,1.1,0.2,1.4,0.6c0.3,0.4,0.5,1,0.5,1.7C34.9,157.4,34.9,157.6,34.9,157.7z M34.1,157
			c0-0.5-0.1-0.8-0.3-1.1s-0.5-0.4-0.8-0.4c-0.7,0-1,0.5-1.1,1.5L34.1,157L34.1,157z"/>
		<path d="M39.5,155.3c0.2,0.3,0.4,0.6,0.4,1.1v3.4H39v-3.3c0-0.3-0.1-0.6-0.2-0.7c-0.1-0.1-0.3-0.2-0.6-0.2c-0.3,0-0.5,0.1-0.7,0.2
			c-0.2,0.1-0.4,0.4-0.5,0.6v3.4h-0.8V155H37l0.1,0.7c0.2-0.3,0.4-0.5,0.6-0.6c0.2-0.1,0.5-0.2,0.8-0.2
			C38.9,154.9,39.3,155.1,39.5,155.3z"/>
		<path d="M43.9,159.6c-0.3,0.2-0.7,0.3-1.1,0.3c-0.4,0-0.7-0.1-0.9-0.3c-0.2-0.2-0.3-0.6-0.3-1v-2.9h-0.8V155h0.8V154l0.8-0.1v1.2
			h1.1l-0.1,0.6h-1v2.8c0,0.2,0,0.4,0.1,0.5c0.1,0.1,0.2,0.2,0.4,0.2c0.2,0,0.4-0.1,0.6-0.2L43.9,159.6z"/>
	</g>
	<g>
		<path d="M154.5,201.2h-1.1l-2.5-5.3c0,0.4,0.1,0.8,0.1,1.1c0,0.4,0,0.8,0,1.3v2.8h-0.8V195h1.1l2.5,5.3c0-0.2,0-0.4-0.1-0.8
			c0-0.4,0-0.7,0-1.1V195h0.8V201.2z"/>
		<path d="M159.5,197c0.4,0.4,0.6,1,0.6,1.8c0,0.5-0.1,0.9-0.3,1.3s-0.4,0.7-0.7,0.9c-0.3,0.2-0.7,0.3-1.1,0.3
			c-0.7,0-1.2-0.2-1.6-0.7c-0.4-0.4-0.6-1-0.6-1.8c0-0.5,0.1-0.9,0.3-1.3c0.2-0.4,0.4-0.7,0.7-0.9c0.3-0.2,0.7-0.3,1.1-0.3
			C158.7,196.3,159.2,196.6,159.5,197z M156.8,198.8c0,1.2,0.4,1.8,1.2,1.8s1.2-0.6,1.2-1.8c0-1.2-0.4-1.8-1.2-1.8
			C157.2,197,156.8,197.6,156.8,198.8z"/>
	</g>
	<g>
		<rect x="205" y="82.5" class="st3" width="22.8" height="15"/>
		<path d="M209.9,83.9l-2,3.8v2.4h-0.9v-2.4l-2-3.8h0.9l1.5,3.1l1.5-3.1H209.9z"/>
		<path d="M213.8,88.1h-3c0,0.5,0.2,0.9,0.4,1.2c0.2,0.2,0.5,0.4,0.9,0.4c0.2,0,0.4,0,0.6-0.1c0.2-0.1,0.4-0.2,0.6-0.3l0.4,0.5
			c-0.5,0.4-1.1,0.6-1.7,0.6c-0.7,0-1.2-0.2-1.5-0.6s-0.6-1-0.6-1.8c0-0.5,0.1-0.9,0.2-1.3c0.2-0.4,0.4-0.7,0.7-0.9
			c0.3-0.2,0.6-0.3,1-0.3c0.6,0,1.1,0.2,1.4,0.6s0.5,1,0.5,1.7C213.9,87.8,213.9,87.9,213.8,88.1z M213,87.4c0-0.5-0.1-0.8-0.3-1.1
			c-0.2-0.2-0.5-0.4-0.8-0.4c-0.7,0-1,0.5-1.1,1.5L213,87.4L213,87.4z"/>
		<path d="M217.3,85.4c0.3,0.1,0.5,0.2,0.7,0.4l-0.4,0.5c-0.2-0.1-0.4-0.2-0.6-0.3c-0.2-0.1-0.4-0.1-0.6-0.1c-0.3,0-0.5,0.1-0.6,0.2
			c-0.2,0.1-0.2,0.3-0.2,0.5c0,0.2,0.1,0.3,0.2,0.5c0.1,0.1,0.4,0.2,0.8,0.3c0.5,0.1,0.9,0.3,1.2,0.5c0.3,0.2,0.4,0.5,0.4,0.9
			c0,0.5-0.2,0.8-0.5,1.1c-0.4,0.2-0.8,0.4-1.3,0.4c-0.7,0-1.3-0.2-1.8-0.6l0.4-0.5c0.4,0.3,0.8,0.5,1.3,0.5c0.3,0,0.6-0.1,0.7-0.2
			c0.2-0.1,0.3-0.3,0.3-0.5c0-0.2,0-0.3-0.1-0.4s-0.2-0.2-0.3-0.3c-0.2-0.1-0.4-0.2-0.7-0.2c-0.5-0.1-0.9-0.3-1.1-0.5
			c-0.2-0.2-0.3-0.5-0.3-0.8c0-0.2,0.1-0.5,0.2-0.7c0.1-0.2,0.4-0.4,0.6-0.5c0.3-0.1,0.6-0.2,0.9-0.2
			C216.8,85.3,217.1,85.3,217.3,85.4z"/>
	</g>
	<g>
		<path d="M129,66.8V73h-0.9v-6.2H129z"/>
		<path d="M133.2,72.7c-0.3,0.2-0.7,0.3-1.1,0.3c-0.4,0-0.7-0.1-0.9-0.3c-0.2-0.2-0.3-0.6-0.3-1v-2.9H130v-0.6h0.8v-1.1l0.8-0.1v1.2
			h1.1l-0.1,0.6h-1v2.8c0,0.2,0,0.4,0.1,0.5c0.1,0.1,0.2,0.2,0.4,0.2c0.2,0,0.4-0.1,0.6-0.2L133.2,72.7z"/>
		<path d="M137.4,70.9h-3c0,0.5,0.2,0.9,0.4,1.2c0.2,0.2,0.5,0.4,0.9,0.4c0.2,0,0.4,0,0.6-0.1c0.2-0.1,0.4-0.2,0.6-0.3l0.4,0.5
			c-0.5,0.4-1.1,0.6-1.7,0.6c-0.7,0-1.2-0.2-1.5-0.6s-0.6-1-0.6-1.8c0-0.5,0.1-0.9,0.2-1.3c0.2-0.4,0.4-0.7,0.7-0.9
			c0.3-0.2,0.6-0.3,1-0.3c0.6,0,1.1,0.2,1.4,0.6s0.5,1,0.5,1.7C137.5,70.6,137.5,70.7,137.4,70.9z M136.6,70.2
			c0-0.5-0.1-0.8-0.3-1.1c-0.2-0.2-0.5-0.4-0.8-0.4c-0.7,0-1,0.5-1.1,1.5L136.6,70.2L136.6,70.2z"/>
		<path d="M141.3,68.2l-0.2,0.8c-0.1,0-0.3-0.1-0.4-0.1c-0.3,0-0.5,0.1-0.7,0.3c-0.2,0.2-0.3,0.6-0.4,1V73h-0.8v-4.7h0.7l0.1,1
			c0.1-0.4,0.3-0.6,0.5-0.8s0.5-0.3,0.8-0.3C141,68.1,141.2,68.1,141.3,68.2z"/>
		<path d="M145.2,72.3c0.1,0.1,0.2,0.2,0.3,0.2l-0.2,0.6c-0.2,0-0.4-0.1-0.6-0.2c-0.2-0.1-0.3-0.3-0.3-0.5c-0.3,0.5-0.8,0.7-1.4,0.7
			c-0.5,0-0.8-0.1-1.1-0.4c-0.3-0.3-0.4-0.6-0.4-1c0-0.5,0.2-0.9,0.5-1.2s0.9-0.4,1.5-0.4h0.7v-0.4c0-0.3-0.1-0.6-0.2-0.7
			c-0.2-0.1-0.4-0.2-0.7-0.2c-0.3,0-0.8,0.1-1.3,0.3l-0.2-0.6c0.6-0.2,1.1-0.3,1.6-0.3c0.6,0,1,0.1,1.3,0.4c0.3,0.3,0.4,0.7,0.4,1.2
			v2.2C145.1,72,145.2,72.2,145.2,72.3z M144.3,71.7v-1.1h-0.6c-0.9,0-1.3,0.3-1.3,1c0,0.3,0.1,0.5,0.2,0.6c0.1,0.1,0.3,0.2,0.6,0.2
			C143.7,72.4,144,72.2,144.3,71.7z"/>
		<path d="M149.2,72.7c-0.3,0.2-0.7,0.3-1.1,0.3c-0.4,0-0.7-0.1-0.9-0.3c-0.2-0.2-0.3-0.6-0.3-1v-2.9h-0.8v-0.6h0.8v-1.1l0.8-0.1
			v1.2h1.1l-0.1,0.6h-1v2.8c0,0.2,0,0.4,0.1,0.5c0.1,0.1,0.2,0.2,0.4,0.2c0.2,0,0.4-0.1,0.6-0.2L149.2,72.7z"/>
		<path d="M153.5,70.9h-3c0,0.5,0.2,0.9,0.4,1.2c0.2,0.2,0.5,0.4,0.9,0.4c0.2,0,0.4,0,0.6-0.1c0.2-0.1,0.4-0.2,0.6-0.3l0.4,0.5
			c-0.5,0.4-1.1,0.6-1.7,0.6c-0.7,0-1.2-0.2-1.5-0.6s-0.6-1-0.6-1.8c0-0.5,0.1-0.9,0.2-1.3c0.2-0.4,0.4-0.7,0.7-0.9
			c0.3-0.2,0.6-0.3,1-0.3c0.6,0,1.1,0.2,1.4,0.6s0.5,1,0.5,1.7C153.5,70.6,153.5,70.7,153.5,70.9z M152.7,70.2
			c0-0.5-0.1-0.8-0.3-1.1c-0.2-0.2-0.5-0.4-0.8-0.4c-0.7,0-1,0.5-1.1,1.5L152.7,70.2L152.7,70.2z"/>
	</g>
	<g>
		<rect x="116.2" y="3.8" class="st3" width="51.1" height="22.3"/>
		<path d="M118,5.2v5.5h2.5l-0.1,0.7h-3.3V5.2H118z"/>
		<path d="M124.6,7.2c0.4,0.4,0.6,1,0.6,1.8c0,0.5-0.1,0.9-0.3,1.3c-0.2,0.4-0.4,0.7-0.7,0.9c-0.3,0.2-0.7,0.3-1.1,0.3
			c-0.7,0-1.2-0.2-1.6-0.7c-0.4-0.4-0.6-1-0.6-1.8c0-0.5,0.1-0.9,0.3-1.3s0.4-0.7,0.7-0.9c0.3-0.2,0.7-0.3,1.1-0.3
			C123.8,6.6,124.3,6.8,124.6,7.2z M121.9,9c0,1.2,0.4,1.8,1.2,1.8s1.2-0.6,1.2-1.8c0-1.2-0.4-1.8-1.2-1.8
			C122.3,7.2,121.9,7.8,121.9,9z"/>
		<path d="M129.9,7.2c0.4,0.4,0.6,1,0.6,1.8c0,0.5-0.1,0.9-0.3,1.3c-0.2,0.4-0.4,0.7-0.7,0.9c-0.3,0.2-0.7,0.3-1.1,0.3
			c-0.7,0-1.2-0.2-1.6-0.7c-0.4-0.4-0.6-1-0.6-1.8c0-0.5,0.1-0.9,0.3-1.3s0.4-0.7,0.7-0.9c0.3-0.2,0.7-0.3,1.1-0.3
			C129,6.6,129.5,6.8,129.9,7.2z M127.1,9c0,1.2,0.4,1.8,1.2,1.8s1.2-0.6,1.2-1.8c0-1.2-0.4-1.8-1.2-1.8
			C127.5,7.2,127.1,7.8,127.1,9z"/>
		<path d="M135.3,7.2c0.3,0.4,0.4,1,0.4,1.8c0,0.7-0.2,1.3-0.5,1.8c-0.3,0.5-0.8,0.7-1.4,0.7c-0.5,0-0.9-0.2-1.2-0.5v2.3l-0.8,0.1
			V6.7h0.7l0.1,0.6c0.2-0.2,0.4-0.4,0.6-0.6c0.2-0.1,0.5-0.2,0.8-0.2C134.6,6.6,135,6.8,135.3,7.2z M134.9,9c0-1.2-0.4-1.8-1.1-1.8
			c-0.2,0-0.4,0.1-0.6,0.2c-0.2,0.1-0.4,0.3-0.5,0.5v2.3c0.1,0.2,0.3,0.3,0.5,0.4c0.2,0.1,0.4,0.1,0.6,0.1
			C134.5,10.8,134.9,10.2,134.9,9z"/>
		<path d="M119.7,16.1c0.3,0.1,0.6,0.3,0.9,0.5l-0.5,0.5c-0.2-0.2-0.5-0.3-0.7-0.4s-0.5-0.1-0.7-0.1c-0.3,0-0.6,0.1-0.8,0.2
			s-0.3,0.4-0.3,0.7c0,0.2,0,0.3,0.1,0.5s0.2,0.2,0.4,0.3s0.5,0.2,0.9,0.3c0.4,0.1,0.7,0.2,1,0.4c0.3,0.1,0.5,0.3,0.6,0.6
			c0.2,0.2,0.2,0.6,0.2,0.9c0,0.4-0.1,0.7-0.3,1s-0.4,0.5-0.8,0.6s-0.7,0.2-1.2,0.2c-0.9,0-1.6-0.3-2.1-0.8l0.5-0.5
			c0.3,0.2,0.5,0.4,0.8,0.5s0.5,0.2,0.9,0.2c0.4,0,0.7-0.1,1-0.3s0.4-0.5,0.4-0.8c0-0.2,0-0.4-0.1-0.5c-0.1-0.1-0.2-0.3-0.4-0.4
			c-0.2-0.1-0.5-0.2-0.8-0.3c-0.6-0.2-1.1-0.4-1.4-0.7s-0.4-0.6-0.4-1.1c0-0.3,0.1-0.6,0.2-0.8s0.4-0.4,0.7-0.6
			c0.3-0.1,0.6-0.2,1-0.2C119,15.9,119.4,16,119.7,16.1z"/>
		<path d="M124.4,22c-0.3,0.2-0.7,0.3-1.1,0.3c-0.4,0-0.7-0.1-0.9-0.3c-0.2-0.2-0.3-0.6-0.3-1v-2.9h-0.8v-0.6h0.8v-1.1l0.8-0.1v1.2
			h1.1l-0.1,0.6h-1v2.8c0,0.2,0,0.4,0.1,0.5c0.1,0.1,0.2,0.2,0.4,0.2c0.2,0,0.4-0.1,0.6-0.2L124.4,22z"/>
		<path d="M128.4,21.5c0.1,0.1,0.2,0.2,0.3,0.2l-0.2,0.6c-0.2,0-0.4-0.1-0.6-0.2c-0.2-0.1-0.3-0.3-0.3-0.5c-0.3,0.5-0.8,0.7-1.4,0.7
			c-0.5,0-0.8-0.1-1.1-0.4c-0.3-0.3-0.4-0.6-0.4-1c0-0.5,0.2-0.9,0.5-1.2s0.9-0.4,1.5-0.4h0.7V19c0-0.3-0.1-0.6-0.2-0.7
			c-0.2-0.1-0.4-0.2-0.7-0.2c-0.3,0-0.8,0.1-1.3,0.3l-0.2-0.6c0.6-0.2,1.1-0.3,1.6-0.3c0.6,0,1,0.1,1.3,0.4c0.3,0.3,0.4,0.7,0.4,1.2
			v2.2C128.3,21.3,128.4,21.4,128.4,21.5z M127.5,21v-1.1h-0.6c-0.9,0-1.3,0.3-1.3,1c0,0.3,0.1,0.5,0.2,0.6c0.1,0.1,0.3,0.2,0.6,0.2
			C126.9,21.7,127.2,21.5,127.5,21z"/>
		<path d="M132.4,22c-0.3,0.2-0.7,0.3-1.1,0.3c-0.4,0-0.7-0.1-0.9-0.3c-0.2-0.2-0.3-0.6-0.3-1v-2.9h-0.8v-0.6h0.8v-1.1l0.8-0.1v1.2
			h1.1l-0.1,0.6h-1v2.8c0,0.2,0,0.4,0.1,0.5c0.1,0.1,0.2,0.2,0.4,0.2c0.2,0,0.4-0.1,0.6-0.2L132.4,22z"/>
		<path d="M136.7,20.1h-3c0,0.5,0.2,0.9,0.4,1.2c0.2,0.2,0.5,0.4,0.9,0.4c0.2,0,0.4,0,0.6-0.1c0.2-0.1,0.4-0.2,0.6-0.3l0.4,0.5
			c-0.5,0.4-1.1,0.6-1.7,0.6c-0.7,0-1.2-0.2-1.5-0.6s-0.6-1-0.6-1.8c0-0.5,0.1-0.9,0.2-1.3c0.2-0.4,0.4-0.7,0.7-0.9
			c0.3-0.2,0.6-0.3,1-0.3c0.6,0,1.1,0.2,1.4,0.6s0.5,1,0.5,1.7C136.7,19.8,136.7,20,136.7,20.1z M135.9,19.5c0-0.5-0.1-0.8-0.3-1.1
			c-0.2-0.2-0.5-0.4-0.8-0.4c-0.7,0-1,0.5-1.1,1.5L135.9,19.5L135.9,19.5z"/>
		<path d="M143.8,17.8c0.2,0.3,0.4,0.6,0.4,1.1v3.4h-0.8v-3.3c0-0.6-0.2-0.9-0.7-0.9c-0.2,0-0.4,0.1-0.6,0.2
			c-0.2,0.1-0.3,0.3-0.5,0.6v3.4h-0.8v-3.3c0-0.6-0.2-0.9-0.7-0.9c-0.2,0-0.4,0.1-0.6,0.2c-0.2,0.1-0.3,0.3-0.5,0.6v3.4h-0.8v-4.7
			h0.7l0.1,0.7c0.4-0.5,0.8-0.8,1.4-0.8c0.3,0,0.5,0.1,0.8,0.2s0.4,0.4,0.4,0.6c0.2-0.3,0.4-0.5,0.6-0.6c0.2-0.1,0.5-0.2,0.8-0.2
			C143.2,17.4,143.5,17.5,143.8,17.8z"/>
		<path d="M149.3,20.1h-3c0,0.5,0.2,0.9,0.4,1.2c0.2,0.2,0.5,0.4,0.9,0.4c0.2,0,0.4,0,0.6-0.1c0.2-0.1,0.4-0.2,0.6-0.3l0.4,0.5
			c-0.5,0.4-1.1,0.6-1.7,0.6c-0.7,0-1.2-0.2-1.5-0.6s-0.6-1-0.6-1.8c0-0.5,0.1-0.9,0.2-1.3c0.2-0.4,0.4-0.7,0.7-0.9
			c0.3-0.2,0.6-0.3,1-0.3c0.6,0,1.1,0.2,1.4,0.6s0.5,1,0.5,1.7C149.4,19.8,149.3,20,149.3,20.1z M148.5,19.5c0-0.5-0.1-0.8-0.3-1.1
			c-0.2-0.2-0.5-0.4-0.8-0.4c-0.7,0-1,0.5-1.1,1.5L148.5,19.5L148.5,19.5z"/>
		<path d="M153.9,17.8c0.2,0.3,0.4,0.6,0.4,1.1v3.4h-0.8v-3.3c0-0.3-0.1-0.6-0.2-0.7c-0.1-0.1-0.3-0.2-0.6-0.2
			c-0.3,0-0.5,0.1-0.7,0.2c-0.2,0.1-0.4,0.4-0.5,0.6v3.4h-0.8v-4.7h0.7l0.1,0.7c0.2-0.3,0.4-0.5,0.6-0.6c0.2-0.1,0.5-0.2,0.8-0.2
			C153.3,17.4,153.7,17.5,153.9,17.8z"/>
		<path d="M158.3,22c-0.3,0.2-0.7,0.3-1.1,0.3c-0.4,0-0.7-0.1-0.9-0.3c-0.2-0.2-0.3-0.6-0.3-1v-2.9h-0.8v-0.6h0.8v-1.1l0.8-0.1v1.2
			h1.1l-0.1,0.6h-1v2.8c0,0.2,0,0.4,0.1,0.5c0.1,0.1,0.2,0.2,0.4,0.2c0.2,0,0.4-0.1,0.6-0.2L158.3,22z"/>
		<path d="M161.4,17.5c0.3,0.1,0.5,0.2,0.7,0.4l-0.4,0.5c-0.2-0.1-0.4-0.2-0.6-0.3c-0.2-0.1-0.4-0.1-0.6-0.1c-0.3,0-0.5,0.1-0.6,0.2
			c-0.2,0.1-0.2,0.3-0.2,0.5c0,0.2,0.1,0.3,0.2,0.5c0.1,0.1,0.4,0.2,0.8,0.3c0.5,0.1,0.9,0.3,1.2,0.5c0.3,0.2,0.4,0.5,0.4,0.9
			c0,0.5-0.2,0.8-0.5,1.1c-0.4,0.2-0.8,0.4-1.3,0.4c-0.7,0-1.3-0.2-1.8-0.6l0.4-0.5c0.4,0.3,0.8,0.5,1.3,0.5c0.3,0,0.6-0.1,0.7-0.2
			c0.2-0.1,0.3-0.3,0.3-0.5c0-0.2,0-0.3-0.1-0.4s-0.2-0.2-0.3-0.3c-0.2-0.1-0.4-0.2-0.7-0.2c-0.5-0.1-0.9-0.3-1.1-0.5
			c-0.2-0.2-0.3-0.5-0.3-0.8c0-0.2,0.1-0.5,0.2-0.7c0.1-0.2,0.4-0.4,0.6-0.5c0.3-0.1,0.6-0.2,0.9-0.2
			C160.8,17.4,161.1,17.4,161.4,17.5z"/>
	</g>
	<g>
		<rect x="119.1" y="147.9" class="st3" width="52.9" height="29.8"/>
		<path d="M123.1,149.3c0.3,0.1,0.5,0.3,0.8,0.5l-0.5,0.5c-0.4-0.3-0.8-0.5-1.2-0.5c-0.5,0-0.9,0.2-1.2,0.6c-0.3,0.4-0.5,1-0.5,1.9
			c0,0.9,0.2,1.5,0.5,1.9c0.3,0.4,0.7,0.6,1.2,0.6c0.3,0,0.5,0,0.7-0.1c0.2-0.1,0.4-0.2,0.6-0.4l0.4,0.5c-0.2,0.2-0.4,0.4-0.7,0.5
			s-0.6,0.2-1,0.2c-0.5,0-1-0.1-1.3-0.4c-0.4-0.2-0.7-0.6-0.9-1.1c-0.2-0.5-0.3-1.1-0.3-1.7c0-0.7,0.1-1.3,0.3-1.7
			c0.2-0.5,0.5-0.8,0.9-1.1c0.4-0.2,0.8-0.4,1.3-0.4C122.5,149.1,122.9,149.2,123.1,149.3z"/>
		<path d="M128.1,151.3c0.4,0.4,0.6,1,0.6,1.8c0,0.5-0.1,0.9-0.3,1.3s-0.4,0.7-0.7,0.9c-0.3,0.2-0.7,0.3-1.1,0.3
			c-0.7,0-1.2-0.2-1.6-0.7c-0.4-0.4-0.6-1-0.6-1.8c0-0.5,0.1-0.9,0.3-1.3c0.2-0.4,0.4-0.7,0.7-0.9c0.3-0.2,0.7-0.3,1.1-0.3
			C127.3,150.6,127.8,150.8,128.1,151.3z M125.4,153.1c0,1.2,0.4,1.8,1.2,1.8s1.2-0.6,1.2-1.8c0-1.2-0.4-1.8-1.2-1.8
			C125.8,151.3,125.4,151.9,125.4,153.1z"/>
		<path d="M133.3,151c0.2,0.3,0.4,0.6,0.4,1.1v3.4h-0.8v-3.3c0-0.3-0.1-0.6-0.2-0.7c-0.1-0.1-0.3-0.2-0.6-0.2
			c-0.3,0-0.5,0.1-0.7,0.2c-0.2,0.1-0.4,0.4-0.5,0.6v3.4h-0.8v-4.7h0.7l0.1,0.7c0.2-0.3,0.4-0.5,0.6-0.6c0.2-0.1,0.5-0.2,0.8-0.2
			C132.7,150.6,133.1,150.7,133.3,151z"/>
		<path d="M139,148.8v6.7h-0.7l-0.1-0.7c-0.2,0.2-0.4,0.4-0.6,0.6c-0.2,0.1-0.5,0.2-0.8,0.2c-0.6,0-1-0.2-1.3-0.7
			c-0.3-0.4-0.5-1-0.5-1.8c0-0.5,0.1-0.9,0.2-1.3c0.1-0.4,0.4-0.7,0.6-0.9s0.6-0.3,1-0.3c0.5,0,0.9,0.2,1.3,0.6v-2.5L139,148.8z
			 M137.7,154.7c0.2-0.1,0.4-0.3,0.5-0.5v-2.3c-0.2-0.2-0.3-0.4-0.5-0.5c-0.2-0.1-0.4-0.2-0.6-0.2c-0.4,0-0.6,0.2-0.8,0.5
			c-0.2,0.3-0.3,0.8-0.3,1.4c0,0.6,0.1,1.1,0.3,1.4c0.2,0.3,0.5,0.5,0.8,0.5C137.3,154.9,137.5,154.8,137.7,154.7z"/>
		<path d="M141.6,148.6c0.1,0.1,0.2,0.2,0.2,0.4s-0.1,0.3-0.2,0.4c-0.1,0.1-0.2,0.2-0.4,0.2c-0.2,0-0.3-0.1-0.4-0.2
			c-0.1-0.1-0.2-0.2-0.2-0.4s0.1-0.3,0.2-0.4c0.1-0.1,0.2-0.2,0.4-0.2C141.3,148.4,141.4,148.5,141.6,148.6z M141.6,150.7v4.7h-0.8
			v-4.7H141.6z"/>
		<path d="M145.7,155.2c-0.3,0.2-0.7,0.3-1.1,0.3c-0.4,0-0.7-0.1-0.9-0.3c-0.2-0.2-0.3-0.6-0.3-1v-2.9h-0.8v-0.6h0.8v-1.1l0.8-0.1
			v1.2h1.1l-0.1,0.6h-1v2.8c0,0.2,0,0.4,0.1,0.5c0.1,0.1,0.2,0.2,0.4,0.2c0.2,0,0.4-0.1,0.6-0.2L145.7,155.2z"/>
		<path d="M147.3,148.6c0.1,0.1,0.2,0.2,0.2,0.4s-0.1,0.3-0.2,0.4c-0.1,0.1-0.2,0.2-0.4,0.2c-0.2,0-0.3-0.1-0.4-0.2
			c-0.1-0.1-0.2-0.2-0.2-0.4s0.1-0.3,0.2-0.4c0.1-0.1,0.2-0.2,0.4-0.2C147.1,148.4,147.2,148.5,147.3,148.6z M147.3,150.7v4.7h-0.8
			v-4.7H147.3z"/>
		<path d="M152.4,151.3c0.4,0.4,0.6,1,0.6,1.8c0,0.5-0.1,0.9-0.3,1.3s-0.4,0.7-0.7,0.9c-0.3,0.2-0.7,0.3-1.1,0.3
			c-0.7,0-1.2-0.2-1.6-0.7c-0.4-0.4-0.6-1-0.6-1.8c0-0.5,0.1-0.9,0.3-1.3c0.2-0.4,0.4-0.7,0.7-0.9c0.3-0.2,0.7-0.3,1.1-0.3
			C151.5,150.6,152,150.8,152.4,151.3z M149.6,153.1c0,1.2,0.4,1.8,1.2,1.8s1.2-0.6,1.2-1.8c0-1.2-0.4-1.8-1.2-1.8
			C150,151.3,149.6,151.9,149.6,153.1z"/>
		<path d="M157.5,151c0.2,0.3,0.4,0.6,0.4,1.1v3.4h-0.8v-3.3c0-0.3-0.1-0.6-0.2-0.7c-0.1-0.1-0.3-0.2-0.6-0.2
			c-0.3,0-0.5,0.1-0.7,0.2c-0.2,0.1-0.4,0.4-0.5,0.6v3.4h-0.8v-4.7h0.7l0.1,0.7c0.2-0.3,0.4-0.5,0.6-0.6c0.2-0.1,0.5-0.2,0.8-0.2
			C157,150.6,157.3,150.7,157.5,151z"/>
	</g>
</g>
<g>
</g>
<g>
</g>
<g>
</g>
<g>
</g>
<g>
</g>
<g>
</g>
<g>
</g>
<g>
</g>
<g>
</g>
<g>
</g>
<g>
</g>
<g>
</g>
<g>
</g>
<g>
</g>
<g>
</g>
<g>
</g>
<g>
</g>
<g>
</g>
</svg>
