<?xml version="1.0" encoding="utf-8"?>
<!-- Generator: Adobe Illustrator 24.1.3, SVG Export Plug-In . SVG Version: 6.00 Build 0)  -->
<svg version="1.1" id="svg131" xmlns:svg="http://www.w3.org/2000/svg"
	 xmlns="http://www.w3.org/2000/svg" xmlns:xlink="http://www.w3.org/1999/xlink" x="0px" y="0px" viewBox="0 0 243.3 187.2"
	 style="enable-background:new 0 0 243.3 187.2;" xml:space="preserve">
<style type="text/css">
	.st0{fill:none;stroke:#000000;stroke-width:0.3985;stroke-miterlimit:10;}
	.st1{clip-path:url(#SVGID_2_);}
	.st2{fill:none;stroke:#000000;stroke-width:0.3188;stroke-linecap:round;stroke-linejoin:round;stroke-miterlimit:10;}
	.st3{fill:none;}
</style>
<g id="surface1">
	<path id="path60" class="st0" d="M52.9,79.4H4.2c-2.2,0-4,1.8-4,4v20.4c0,2.2,1.8,4,4,4h48.7c2.2,0,4-1.8,4-4V83.4
		C56.9,81.2,55.1,79.4,52.9,79.4z"/>
	<path id="path70" class="st0" d="M194.6,93.6l-54.4-36.3L85.7,93.6l54.4,36.3L194.6,93.6z"/>
	<path id="path86" class="st0" d="M111.8,28.5h56.7V0.2h-56.7V28.5z"/>
	<g>
		<defs>
			<rect id="SVGID_1_" x="106" y="153" width="69" height="34.2"/>
		</defs>
		<clipPath id="SVGID_2_">
			<use xlink:href="#SVGID_1_"  style="overflow:visible;"/>
		</clipPath>
		<g id="g98" class="st1">
			<path id="path96" class="st0" d="M164.5,158.7h-48.7c-2.2,0-4,1.8-4,4v20.4c0,2.2,1.8,4,4,4h48.7c2.2,0,4-1.8,4-4v-20.4
				C168.5,160.5,166.7,158.7,164.5,158.7z"/>
		</g>
	</g>
	<path id="path106" class="st0" d="M57.1,93.6H85"/>
	<path id="path108" class="st2" d="M83.8,92c0.1,0.6,1.2,1.5,1.5,1.6c-0.3,0.1-1.4,1-1.5,1.6"/>
	<path id="path110" class="st0" d="M140.1,28.7v27.9"/>
	<path id="path112" class="st2" d="M141.7,55.4c-0.6,0.1-1.5,1.2-1.6,1.5c-0.1-0.3-1-1.4-1.6-1.5"/>
	<path id="path114" class="st0" d="M194.8,93.6h28.3V14.4h-54"/>
	<path id="path116" class="st2" d="M170.3,16c-0.1-0.6-1.2-1.5-1.5-1.6c0.3-0.1,1.4-1,1.5-1.6"/>
	<path id="path122" class="st0" d="M140.1,130.2V158"/>
	<path id="path124" class="st2" d="M141.7,156.8c-0.6,0.1-1.5,1.2-1.6,1.5c-0.1-0.3-1-1.4-1.6-1.5"/>
	<g>
		<rect x="3.2" y="86.5" class="st3" width="51.1" height="16.7"/>
		<path d="M5.5,88.4v8.3H4.4v-8.3H5.5z"/>
		<path d="M12.2,90.7c0.3,0.3,0.5,0.8,0.5,1.4v4.5h-1.1v-4.4c0-0.4-0.1-0.8-0.3-0.9c-0.2-0.2-0.4-0.3-0.7-0.3
			c-0.3,0-0.6,0.1-0.9,0.3S9.2,91.8,9,92.1v4.5H7.9v-6.3h0.9l0.1,0.9c0.2-0.3,0.5-0.6,0.8-0.8c0.3-0.2,0.7-0.3,1.1-0.3
			C11.4,90.2,11.9,90.3,12.2,90.7z"/>
		<path d="M16,87.5c0.1,0.1,0.2,0.3,0.2,0.5s-0.1,0.4-0.2,0.5c-0.1,0.1-0.3,0.2-0.6,0.2c-0.2,0-0.4-0.1-0.6-0.2
			c-0.1-0.1-0.2-0.3-0.2-0.5s0.1-0.4,0.2-0.5s0.3-0.2,0.6-0.2C15.7,87.3,15.8,87.3,16,87.5z M16,90.3v6.3h-1.1v-6.3H16z"/>
		<path d="M21.5,96.3c-0.4,0.3-0.9,0.4-1.4,0.4c-0.5,0-1-0.2-1.3-0.5c-0.3-0.3-0.5-0.8-0.5-1.3v-3.8h-1.1v-0.9h1.1v-1.4l1.1-0.1v1.6
			h1.5l-0.1,0.9h-1.4v3.8c0,0.3,0.1,0.6,0.2,0.7c0.1,0.1,0.3,0.2,0.6,0.2c0.2,0,0.5-0.1,0.8-0.3L21.5,96.3z"/>
		<path d="M23.7,87.5c0.1,0.1,0.2,0.3,0.2,0.5s-0.1,0.4-0.2,0.5c-0.1,0.1-0.3,0.2-0.6,0.2c-0.2,0-0.4-0.1-0.6-0.2
			c-0.1-0.1-0.2-0.3-0.2-0.5s0.1-0.4,0.2-0.5s0.3-0.2,0.6-0.2C23.4,87.3,23.6,87.3,23.7,87.5z M23.7,90.3v6.3h-1.1v-6.3H23.7z"/>
		<path d="M30.4,95.7c0.1,0.1,0.2,0.2,0.4,0.3l-0.3,0.8c-0.3,0-0.6-0.1-0.8-0.3c-0.2-0.1-0.3-0.4-0.4-0.7c-0.4,0.6-1.1,0.9-1.9,0.9
			c-0.6,0-1.1-0.2-1.5-0.5c-0.4-0.4-0.5-0.8-0.5-1.4c0-0.7,0.2-1.2,0.7-1.5c0.5-0.4,1.2-0.5,2.1-0.5h1v-0.5c0-0.4-0.1-0.8-0.3-1
			c-0.2-0.2-0.5-0.3-1-0.3c-0.5,0-1,0.1-1.7,0.3l-0.3-0.8c0.8-0.3,1.5-0.4,2.2-0.4c0.7,0,1.3,0.2,1.7,0.5c0.4,0.4,0.6,0.9,0.6,1.6
			v2.9C30.2,95.4,30.3,95.6,30.4,95.7z M29.1,95v-1.5h-0.8c-1.2,0-1.8,0.4-1.8,1.3c0,0.4,0.1,0.7,0.3,0.9c0.2,0.2,0.5,0.3,0.8,0.3
			C28.3,95.9,28.8,95.6,29.1,95z"/>
		<path d="M32.7,96.4c-0.2-0.2-0.4-0.6-0.4-1v-7.6l1.1-0.1v7.7c0,0.2,0,0.3,0.1,0.4s0.2,0.1,0.3,0.1c0.2,0,0.3,0,0.4-0.1l0.3,0.8
			c-0.3,0.1-0.6,0.2-0.9,0.2C33.2,96.8,32.9,96.6,32.7,96.4z"/>
		<path d="M37,87.5c0.1,0.1,0.2,0.3,0.2,0.5s-0.1,0.4-0.2,0.5c-0.1,0.1-0.3,0.2-0.6,0.2c-0.2,0-0.4-0.1-0.6-0.2
			c-0.1-0.1-0.2-0.3-0.2-0.5s0.1-0.4,0.2-0.5s0.3-0.2,0.6-0.2C36.7,87.3,36.9,87.3,37,87.5z M37,90.3v6.3h-1.1v-6.3H37z"/>
		<path d="M43,90.3v0.8l-3.3,4.6H43l-0.1,0.9h-4.5v-0.8l3.3-4.6h-3v-0.9H43z"/>
		<path d="M49.2,93.8h-4c0,0.7,0.2,1.2,0.5,1.5c0.3,0.3,0.7,0.5,1.2,0.5c0.3,0,0.6,0,0.8-0.1c0.3-0.1,0.5-0.2,0.8-0.4L49,96
			c-0.7,0.5-1.4,0.8-2.2,0.8c-0.9,0-1.6-0.3-2.1-0.9c-0.5-0.6-0.7-1.4-0.7-2.4c0-0.7,0.1-1.2,0.3-1.7c0.2-0.5,0.5-0.9,0.9-1.2
			s0.9-0.4,1.4-0.4c0.8,0,1.5,0.3,1.9,0.8c0.4,0.6,0.7,1.3,0.7,2.3C49.2,93.5,49.2,93.6,49.2,93.8z M48.1,93c0-0.6-0.1-1.1-0.4-1.4
			c-0.2-0.3-0.6-0.5-1.1-0.5c-0.9,0-1.4,0.7-1.5,2L48.1,93L48.1,93z"/>
	</g>
	<g>
		<rect x="106.4" y="76.7" class="st3" width="68.2" height="37.1"/>
		<path d="M112.2,85.2c-0.3,0.2-1,0.3-1.9,0.3c-2,0-3.5-1.3-3.5-3.8c0-2.5,1.5-4,3.8-4c0.9,0,1.4,0.2,1.7,0.3l-0.2,0.7
			c-0.4-0.2-0.8-0.3-1.4-0.3c-1.7,0-2.9,1.2-2.9,3.3c0,2,1.1,3.2,2.9,3.2c0.6,0,1.1-0.1,1.5-0.3L112.2,85.2z"/>
		<path d="M117.8,85.5h-0.8v-3.2c0-0.9-0.3-1.7-1.3-1.7c-0.6,0-1.4,0.5-1.4,1.5v3.3h-0.8v-8h0.8v3.4h0c0.4-0.6,1-1,1.7-1
			c0.7,0,1.8,0.4,1.8,2.3V85.5z"/>
		<path d="M123.2,85.2c-0.3,0.1-0.9,0.3-1.7,0.3c-1.6,0-2.5-1.1-2.5-2.7c0-1.7,1-2.9,2.4-2.9c1.7,0,2.1,1.5,2.1,2.5
			c0,0.2,0,0.3,0,0.5h-3.7c0,1.5,0.9,2.1,1.8,2.1c0.7,0,1.1-0.1,1.4-0.3L123.2,85.2z M122.7,82.2c0-0.7-0.3-1.7-1.4-1.7
			c-1,0-1.4,0.9-1.5,1.7H122.7z"/>
		<path d="M128.4,85.3c-0.2,0.1-0.8,0.3-1.5,0.3c-1.6,0-2.6-1.1-2.6-2.8c0-1.7,1.1-2.9,2.8-2.9c0.6,0,1.1,0.2,1.3,0.3l-0.2,0.7
			c-0.2-0.1-0.6-0.3-1.1-0.3c-1.3,0-1.9,1-1.9,2.2c0,1.3,0.8,2.1,1.9,2.1c0.5,0,0.9-0.1,1.2-0.3L128.4,85.3z"/>
		<path d="M133.8,85.5h-1l-1.9-2.7l-0.5,0.6v2.1h-0.8v-8h0.8v5.1h0c0.1-0.2,0.3-0.4,0.5-0.6l1.6-1.9h1l-2,2.2L133.8,85.5z"/>
		<path d="M143.9,80l-1.7,5.5h-0.7l-0.9-2.7c-0.2-0.6-0.3-1.2-0.5-1.8h0c-0.1,0.6-0.3,1.2-0.5,1.8l-0.9,2.7h-0.7l-1.6-5.5h0.9
			l0.8,2.9c0.1,0.6,0.3,1.2,0.4,1.7h0c0.1-0.5,0.3-1.1,0.5-1.7l0.9-2.9h0.7l0.9,2.8c0.2,0.6,0.3,1.2,0.5,1.8h0
			c0.1-0.5,0.3-1.1,0.4-1.8l0.8-2.8H143.9z"/>
		<path d="M149.3,85.5h-0.8v-3.2c0-0.9-0.3-1.7-1.3-1.7c-0.6,0-1.4,0.5-1.4,1.5v3.3h-0.8v-8h0.8v3.4h0c0.4-0.6,1-1,1.7-1
			c0.7,0,1.8,0.4,1.8,2.3V85.5z"/>
		<path d="M154.7,85.2c-0.3,0.1-0.9,0.3-1.7,0.3c-1.6,0-2.5-1.1-2.5-2.7c0-1.7,1-2.9,2.4-2.9c1.7,0,2.1,1.5,2.1,2.5
			c0,0.2,0,0.3,0,0.5h-3.7c0,1.5,0.9,2.1,1.8,2.1c0.7,0,1.1-0.1,1.4-0.3L154.7,85.2z M154.2,82.2c0-0.7-0.3-1.7-1.4-1.7
			c-1,0-1.4,0.9-1.5,1.7H154.2z"/>
		<path d="M156.5,79l0.8-0.3V80h1.4v0.6h-1.4v3.1c0,0.7,0.2,1.1,0.7,1.1c0.3,0,0.4,0,0.6-0.1l0,0.6c-0.2,0.1-0.5,0.1-0.8,0.1
			c-1.3,0-1.4-1.2-1.4-1.8v-3.1h-0.8V80h0.8V79z"/>
		<path d="M164.2,85.5h-0.8v-3.2c0-0.9-0.3-1.7-1.3-1.7c-0.6,0-1.4,0.5-1.4,1.5v3.3h-0.8v-8h0.8v3.4h0c0.4-0.6,1-1,1.7-1
			c0.7,0,1.8,0.4,1.8,2.3V85.5z"/>
		<path d="M169.6,85.2c-0.3,0.1-0.9,0.3-1.7,0.3c-1.6,0-2.5-1.1-2.5-2.7c0-1.7,1-2.9,2.4-2.9c1.7,0,2.1,1.5,2.1,2.5
			c0,0.2,0,0.3,0,0.5h-3.7c0,1.5,0.9,2.1,1.8,2.1c0.7,0,1.1-0.1,1.4-0.3L169.6,85.2z M169.1,82.2c0-0.7-0.3-1.7-1.4-1.7
			c-1,0-1.4,0.9-1.5,1.7H169.1z"/>
		<path d="M173.7,80.7c-0.1,0-0.2,0-0.3,0c-0.9,0-1.4,0.9-1.4,1.8v3h-0.8v-3.8c0-0.6,0-1.1,0-1.6h0.7l0,1h0c0.2-0.7,0.8-1.2,1.5-1.2
			c0.1,0,0.2,0,0.3,0V80.7z"/>
		<path d="M107.4,91l0.8-0.3V92h1.4v0.6h-1.4v3.1c0,0.7,0.2,1.1,0.7,1.1c0.3,0,0.4,0,0.6-0.1l0,0.6c-0.2,0.1-0.5,0.1-0.8,0.1
			c-1.3,0-1.4-1.2-1.4-1.8v-3.1h-0.8V92h0.8V91z"/>
		<path d="M115.1,97.5h-0.8v-3.2c0-0.9-0.3-1.7-1.3-1.7c-0.6,0-1.4,0.5-1.4,1.5v3.3h-0.8v-8h0.8v3.4h0c0.4-0.6,1-1,1.7-1
			c0.7,0,1.8,0.4,1.8,2.3V97.5z"/>
		<path d="M120.6,97.2c-0.3,0.2-0.9,0.3-1.7,0.3c-1.6,0-2.5-1.1-2.5-2.7c0-1.7,1-2.9,2.4-2.9c1.7,0,2.1,1.5,2.1,2.5
			c0,0.2,0,0.3,0,0.5h-3.7c0,1.5,0.9,2.1,1.8,2.1c0.7,0,1.1-0.1,1.4-0.3L120.6,97.2z M120,94.2c0-0.7-0.3-1.7-1.4-1.7
			c-1,0-1.4,0.9-1.5,1.7H120z"/>
		<path d="M128.1,97.3c-0.2,0.1-0.8,0.3-1.5,0.3c-1.6,0-2.6-1.1-2.6-2.8c0-1.7,1.1-2.9,2.8-2.9c0.6,0,1.1,0.2,1.3,0.3l-0.2,0.7
			c-0.2-0.1-0.6-0.3-1.1-0.3c-1.3,0-1.9,1-1.9,2.2c0,1.3,0.8,2.1,1.9,2.1c0.5,0,0.9-0.1,1.2-0.3L128.1,97.3z"/>
		<path d="M133.9,94.7c0,2-1.3,2.9-2.5,2.9c-1.4,0-2.5-1-2.5-2.8c0-1.9,1.2-2.9,2.5-2.9C132.9,91.9,133.9,93,133.9,94.7z
			 M131.4,92.5c-1.2,0-1.7,1.2-1.7,2.2c0,1.2,0.7,2.2,1.6,2.2c1,0,1.7-1,1.7-2.2C133,93.8,132.6,92.5,131.4,92.5z"/>
		<path d="M139.5,97.5h-0.8v-3.2c0-0.9-0.3-1.7-1.3-1.7c-0.7,0-1.4,0.6-1.4,1.5v3.3h-0.8v-4c0-0.6,0-1,0-1.4h0.7l0,0.9h0
			c0.3-0.5,0.9-1,1.7-1c0.7,0,1.8,0.4,1.8,2.3V97.5z"/>
		<path d="M145.5,96.1c0,0.4,0,1,0,1.3h-0.7l0-0.9h0c-0.3,0.6-0.9,1-1.8,1c-1.3,0-2.2-1.1-2.2-2.8c0-1.8,1.1-2.9,2.3-2.9
			c0.8,0,1.3,0.4,1.6,0.8h0v-3.3h0.8V96.1z M144.7,94.2c0-1.1-0.8-1.6-1.5-1.6c-1,0-1.6,1-1.6,2.2c0,1.1,0.5,2.1,1.6,2.1
			c0.9,0,1.5-0.8,1.5-1.7V94.2z"/>
		<path d="M147.6,91.1c-0.3,0-0.5-0.3-0.5-0.6c0-0.3,0.2-0.6,0.5-0.6c0.3,0,0.5,0.2,0.5,0.6C148.1,90.8,147.9,91.1,147.6,91.1z
			 M148,97.5h-0.8V92h0.8V97.5z"/>
		<path d="M149.9,91l0.8-0.3V92h1.4v0.6h-1.4v3.1c0,0.7,0.2,1.1,0.7,1.1c0.3,0,0.4,0,0.6-0.1l0,0.6c-0.2,0.1-0.5,0.1-0.8,0.1
			c-1.3,0-1.4-1.2-1.4-1.8v-3.1H149V92h0.8V91z"/>
		<path d="M153.6,91.1c-0.3,0-0.5-0.3-0.5-0.6c0-0.3,0.2-0.6,0.5-0.6c0.3,0,0.5,0.2,0.5,0.6C154.1,90.8,153.9,91.1,153.6,91.1z
			 M154,97.5h-0.8V92h0.8V97.5z"/>
		<path d="M160.3,94.7c0,2-1.3,2.9-2.5,2.9c-1.4,0-2.5-1-2.5-2.8c0-1.9,1.2-2.9,2.5-2.9C159.3,91.9,160.3,93,160.3,94.7z
			 M157.8,92.5c-1.2,0-1.7,1.2-1.7,2.2c0,1.2,0.7,2.2,1.6,2.2c1,0,1.7-1,1.7-2.2C159.4,93.8,159,92.5,157.8,92.5z"/>
		<path d="M165.9,97.5h-0.8v-3.2c0-0.9-0.3-1.7-1.3-1.7c-0.7,0-1.4,0.6-1.4,1.5v3.3h-0.8v-4c0-0.6,0-1,0-1.4h0.7l0,0.9h0
			c0.3-0.5,0.9-1,1.7-1c0.7,0,1.8,0.4,1.8,2.3V97.5z"/>
		<path d="M107.6,103.1c-0.3,0-0.5-0.3-0.5-0.6c0-0.3,0.2-0.6,0.5-0.6c0.3,0,0.5,0.3,0.5,0.6C108.2,102.8,107.9,103.1,107.6,103.1z
			 M108,109.5h-0.8V104h0.8V109.5z"/>
		<path d="M112.2,104.8c-0.2-0.1-0.6-0.3-1.1-0.3c-0.6,0-0.9,0.4-0.9,0.8c0,0.5,0.3,0.7,1,1c0.9,0.4,1.4,0.8,1.4,1.6
			c0,1-0.7,1.6-1.9,1.6c-0.5,0-1.1-0.2-1.4-0.4l0.2-0.6c0.3,0.2,0.8,0.4,1.2,0.4c0.7,0,1.1-0.4,1.1-0.9c0-0.5-0.3-0.8-1-1.1
			c-0.9-0.4-1.4-0.9-1.4-1.5c0-0.8,0.7-1.5,1.8-1.5c0.5,0,1,0.1,1.2,0.3L112.2,104.8z"/>
		<path d="M116.5,103l0.8-0.3v1.3h1.4v0.6h-1.4v3.1c0,0.7,0.2,1.1,0.7,1.1c0.3,0,0.4,0,0.6-0.1l0,0.6c-0.2,0.1-0.5,0.1-0.8,0.1
			c-1.3,0-1.4-1.2-1.4-1.8v-3.1h-0.8V104h0.8V103z"/>
		<path d="M122.3,104.7c-0.1,0-0.2,0-0.3,0c-0.9,0-1.4,0.9-1.4,1.8v3h-0.8v-3.8c0-0.6,0-1.1,0-1.6h0.7l0,1h0
			c0.2-0.7,0.8-1.2,1.5-1.2c0.1,0,0.2,0,0.3,0V104.7z"/>
		<path d="M127.5,108c0,0.6,0,1,0,1.4h-0.8l0-0.9h0c-0.3,0.4-0.8,1-1.7,1c-0.8,0-1.8-0.5-1.8-2.3V104h0.8v3.1c0,1.1,0.3,1.8,1.2,1.8
			c0.6,0,1.4-0.5,1.4-1.5V104h0.8V108z"/>
		<path d="M133,109.2c-0.3,0.1-0.9,0.3-1.7,0.3c-1.6,0-2.5-1.1-2.5-2.7c0-1.7,1-2.9,2.4-2.9c1.7,0,2.1,1.5,2.1,2.5
			c0,0.2,0,0.3,0,0.5h-3.7c0,1.5,0.9,2.1,1.8,2.1c0.7,0,1.1-0.1,1.4-0.3L133,109.2z M132.5,106.2c0-0.7-0.3-1.7-1.4-1.7
			c-1,0-1.4,0.9-1.5,1.7H132.5z"/>
	</g>
	<g>
		<rect x="111.9" y="2.7" class="st3" width="57.3" height="23.4"/>
		<path d="M113.8,4.2v6.1h2.8l-0.1,0.8h-3.7V4.2H113.8z"/>
		<path d="M121.3,6.5c0.4,0.5,0.6,1.2,0.6,2c0,0.5-0.1,1-0.3,1.4c-0.2,0.4-0.5,0.7-0.8,1s-0.8,0.3-1.3,0.3c-0.7,0-1.3-0.2-1.7-0.7
			c-0.4-0.5-0.6-1.2-0.6-2c0-0.5,0.1-1,0.3-1.4c0.2-0.4,0.5-0.7,0.8-1c0.4-0.2,0.8-0.3,1.3-0.3C120.3,5.7,120.9,6,121.3,6.5z
			 M118.2,8.5c0,1.3,0.5,2,1.4,2s1.4-0.7,1.4-2c0-1.3-0.4-2-1.3-2C118.6,6.5,118.2,7.1,118.2,8.5z"/>
		<path d="M127.1,6.5c0.4,0.5,0.6,1.2,0.6,2c0,0.5-0.1,1-0.3,1.4s-0.5,0.7-0.8,1s-0.8,0.3-1.3,0.3c-0.7,0-1.3-0.2-1.7-0.7
			c-0.4-0.5-0.6-1.2-0.6-2c0-0.5,0.1-1,0.3-1.4c0.2-0.4,0.5-0.7,0.8-1s0.8-0.3,1.3-0.3C126.1,5.7,126.7,6,127.1,6.5z M124,8.5
			c0,1.3,0.5,2,1.4,2s1.4-0.7,1.4-2c0-1.3-0.5-2-1.4-2C124.5,6.5,124,7.1,124,8.5z"/>
		<path d="M133.1,6.4c0.3,0.5,0.5,1.2,0.5,2c0,0.8-0.2,1.5-0.5,2c-0.4,0.5-0.9,0.8-1.5,0.8c-0.6,0-1-0.2-1.4-0.6v2.5l-0.9,0.1V5.8
			h0.8l0.1,0.7c0.2-0.3,0.4-0.5,0.7-0.6c0.3-0.1,0.6-0.2,0.9-0.2C132.3,5.7,132.8,6,133.1,6.4z M132.6,8.5c0-1.3-0.4-2-1.2-2
			c-0.3,0-0.5,0.1-0.7,0.2c-0.2,0.2-0.4,0.4-0.6,0.6v2.6c0.1,0.2,0.3,0.4,0.5,0.5s0.4,0.2,0.7,0.2C132.2,10.5,132.6,9.8,132.6,8.5z"
			/>
		<path d="M115.8,16.3c0.3,0.1,0.6,0.3,1,0.6l-0.5,0.6c-0.3-0.2-0.5-0.4-0.8-0.5s-0.5-0.1-0.8-0.1c-0.4,0-0.7,0.1-0.9,0.3
			s-0.4,0.4-0.4,0.7c0,0.2,0,0.4,0.1,0.5c0.1,0.1,0.2,0.3,0.4,0.4c0.2,0.1,0.5,0.2,0.9,0.4c0.4,0.1,0.8,0.3,1.1,0.4s0.5,0.4,0.7,0.6
			c0.2,0.3,0.3,0.6,0.3,1c0,0.4-0.1,0.8-0.3,1.1s-0.5,0.5-0.9,0.7c-0.4,0.2-0.8,0.3-1.3,0.3c-1,0-1.7-0.3-2.3-0.9l0.5-0.6
			c0.3,0.2,0.6,0.4,0.9,0.5s0.6,0.2,1,0.2c0.4,0,0.8-0.1,1.1-0.3c0.3-0.2,0.4-0.5,0.4-0.9c0-0.2,0-0.4-0.1-0.6
			c-0.1-0.1-0.2-0.3-0.4-0.4c-0.2-0.1-0.5-0.2-0.9-0.4c-0.7-0.2-1.2-0.5-1.5-0.8c-0.3-0.3-0.5-0.7-0.5-1.2c0-0.3,0.1-0.7,0.3-0.9
			c0.2-0.3,0.4-0.5,0.8-0.6c0.3-0.2,0.7-0.2,1.1-0.2C115,16.1,115.4,16.2,115.8,16.3z"/>
		<path d="M120.9,22.9c-0.3,0.2-0.7,0.4-1.2,0.4c-0.4,0-0.8-0.1-1-0.4c-0.3-0.3-0.4-0.6-0.4-1.1v-3.2h-0.9v-0.7h0.9v-1.2l0.9-0.1
			v1.3h1.2l-0.1,0.7h-1.1v3.1c0,0.3,0,0.5,0.1,0.6c0.1,0.1,0.3,0.2,0.5,0.2c0.2,0,0.4-0.1,0.7-0.2L120.9,22.9z"/>
		<path d="M125.5,22.4c0.1,0.1,0.2,0.2,0.3,0.2l-0.2,0.6c-0.3,0-0.5-0.1-0.7-0.2c-0.2-0.1-0.3-0.3-0.4-0.6c-0.4,0.5-0.9,0.8-1.6,0.8
			c-0.5,0-0.9-0.1-1.2-0.4c-0.3-0.3-0.5-0.7-0.5-1.2c0-0.6,0.2-1,0.6-1.3c0.4-0.3,1-0.5,1.7-0.5h0.8v-0.4c0-0.4-0.1-0.6-0.3-0.8
			c-0.2-0.2-0.5-0.2-0.8-0.2c-0.4,0-0.9,0.1-1.4,0.3l-0.2-0.7c0.7-0.2,1.3-0.4,1.8-0.4c0.6,0,1.1,0.2,1.4,0.5
			c0.3,0.3,0.5,0.7,0.5,1.3v2.4C125.4,22.1,125.4,22.2,125.5,22.4z M124.5,21.7v-1.2h-0.7c-1,0-1.5,0.4-1.5,1.1
			c0,0.3,0.1,0.5,0.2,0.7s0.4,0.2,0.7,0.2C123.7,22.5,124.2,22.3,124.5,21.7z"/>
		<path d="M129.9,22.9c-0.3,0.2-0.7,0.4-1.2,0.4c-0.4,0-0.8-0.1-1-0.4c-0.3-0.3-0.4-0.6-0.4-1.1v-3.2h-0.9v-0.7h0.9v-1.2l0.9-0.1
			v1.3h1.3l-0.1,0.7h-1.2v3.1c0,0.3,0,0.5,0.1,0.6c0.1,0.1,0.3,0.2,0.5,0.2c0.2,0,0.4-0.1,0.7-0.2L129.9,22.9z"/>
		<path d="M134.7,20.8h-3.4c0,0.6,0.2,1,0.4,1.3c0.3,0.3,0.6,0.4,1,0.4c0.3,0,0.5,0,0.7-0.1c0.2-0.1,0.4-0.2,0.7-0.3l0.4,0.5
			c-0.6,0.4-1.2,0.7-1.8,0.7c-0.7,0-1.3-0.2-1.7-0.7c-0.4-0.5-0.6-1.1-0.6-2c0-0.5,0.1-1,0.3-1.5c0.2-0.4,0.4-0.8,0.8-1
			c0.3-0.2,0.7-0.4,1.2-0.4c0.7,0,1.2,0.2,1.6,0.7c0.4,0.5,0.6,1.1,0.6,1.9C134.7,20.5,134.7,20.6,134.7,20.8z M133.8,20
			c0-0.5-0.1-0.9-0.3-1.2s-0.5-0.4-0.9-0.4c-0.8,0-1.2,0.6-1.2,1.7L133.8,20L133.8,20z"/>
		<path d="M142.5,18.2c0.3,0.3,0.4,0.7,0.4,1.2v3.8H142v-3.6c0-0.7-0.2-1-0.7-1c-0.3,0-0.5,0.1-0.7,0.2c-0.2,0.1-0.4,0.4-0.6,0.7
			v3.7h-0.9v-3.6c0-0.7-0.2-1-0.7-1c-0.3,0-0.5,0.1-0.7,0.2c-0.2,0.2-0.4,0.4-0.6,0.7v3.7h-0.9v-5.3h0.8l0.1,0.8
			c0.4-0.6,0.9-0.9,1.5-0.9c0.3,0,0.6,0.1,0.8,0.3c0.2,0.2,0.4,0.4,0.5,0.7c0.2-0.3,0.4-0.5,0.7-0.7c0.3-0.2,0.5-0.2,0.9-0.2
			C141.9,17.7,142.2,17.9,142.5,18.2z"/>
		<path d="M148.7,20.8h-3.4c0,0.6,0.2,1,0.4,1.3c0.3,0.3,0.6,0.4,1,0.4c0.3,0,0.5,0,0.7-0.1c0.2-0.1,0.4-0.2,0.7-0.3l0.4,0.5
			c-0.6,0.4-1.2,0.7-1.8,0.7c-0.7,0-1.3-0.2-1.7-0.7c-0.4-0.5-0.6-1.1-0.6-2c0-0.5,0.1-1,0.3-1.5c0.2-0.4,0.4-0.8,0.8-1
			c0.3-0.2,0.7-0.4,1.2-0.4c0.7,0,1.2,0.2,1.6,0.7c0.4,0.5,0.6,1.1,0.6,1.9C148.7,20.5,148.7,20.6,148.7,20.8z M147.8,20
			c0-0.5-0.1-0.9-0.3-1.2s-0.5-0.4-0.9-0.4c-0.8,0-1.2,0.6-1.2,1.7L147.8,20L147.8,20z"/>
		<path d="M153.8,18.1c0.3,0.3,0.4,0.7,0.4,1.2v3.8h-0.9v-3.6c0-0.4-0.1-0.6-0.2-0.8s-0.3-0.2-0.6-0.2c-0.3,0-0.5,0.1-0.7,0.2
			c-0.2,0.2-0.4,0.4-0.6,0.7v3.7h-0.9v-5.3h0.8l0.1,0.8c0.2-0.3,0.4-0.5,0.7-0.7c0.3-0.2,0.6-0.2,0.9-0.2
			C153.2,17.7,153.5,17.9,153.8,18.1z"/>
		<path d="M158.7,22.9c-0.3,0.2-0.7,0.4-1.2,0.4c-0.4,0-0.8-0.1-1-0.4c-0.3-0.3-0.4-0.6-0.4-1.1v-3.2h-0.9v-0.7h0.9v-1.2l0.9-0.1
			v1.3h1.3l-0.1,0.7H157v3.1c0,0.3,0,0.5,0.1,0.6c0.1,0.1,0.3,0.2,0.5,0.2c0.2,0,0.4-0.1,0.7-0.2L158.7,22.9z"/>
		<path d="M162.1,17.9c0.3,0.1,0.6,0.3,0.8,0.5l-0.4,0.6c-0.2-0.2-0.5-0.3-0.7-0.3s-0.4-0.1-0.7-0.1c-0.3,0-0.5,0.1-0.7,0.2
			c-0.2,0.1-0.3,0.3-0.3,0.5c0,0.2,0.1,0.4,0.2,0.5c0.2,0.1,0.5,0.2,0.9,0.4c0.6,0.1,1,0.3,1.3,0.6s0.4,0.6,0.4,1
			c0,0.5-0.2,0.9-0.6,1.2s-0.9,0.4-1.5,0.4c-0.8,0-1.5-0.2-2-0.7l0.5-0.6c0.4,0.3,0.9,0.5,1.5,0.5c0.3,0,0.6-0.1,0.8-0.2
			s0.3-0.3,0.3-0.6c0-0.2,0-0.3-0.1-0.4s-0.2-0.2-0.4-0.3c-0.2-0.1-0.4-0.2-0.8-0.3c-0.6-0.1-1-0.3-1.2-0.6s-0.4-0.6-0.4-0.9
			c0-0.3,0.1-0.5,0.2-0.7c0.2-0.2,0.4-0.4,0.7-0.5c0.3-0.1,0.6-0.2,1-0.2S161.8,17.8,162.1,17.9z"/>
	</g>
	<g>
		<rect x="194.6" y="52.4" class="st3" width="26.6" height="14.6"/>
		<path d="M200.9,54.7h-2.7V63h-1v-8.3h-2.7v-0.8h6.4V54.7z"/>
		<path d="M204.7,57.3c-0.1,0-0.2,0-0.4,0c-1.1,0-1.6,1.1-1.6,2.2V63h-1v-4.6c0-0.7,0-1.3,0-2h0.9l0,1.3h0c0.3-0.8,1-1.4,1.8-1.4
			c0.1,0,0.2,0,0.3,0V57.3z"/>
		<path d="M211,61.3c0,0.7,0,1.2,0.1,1.7h-0.9l0-1h0c-0.3,0.5-1,1.2-2.1,1.2c-1,0-2.1-0.6-2.1-2.8v-3.9h1v3.7c0,1.3,0.4,2.2,1.5,2.2
			c0.8,0,1.7-0.6,1.7-1.8v-4.1h1V61.3z"/>
		<path d="M217.6,62.7c-0.4,0.2-1.1,0.4-2.1,0.4c-1.9,0-3-1.3-3-3.3c0-2.1,1.2-3.5,2.9-3.5c2,0,2.5,1.8,2.5,3c0,0.2,0,0.4,0,0.6
			h-4.4c0,1.8,1,2.5,2.2,2.5c0.8,0,1.3-0.2,1.7-0.3L217.6,62.7z M217,59.1c0-0.9-0.4-2-1.6-2c-1.2,0-1.7,1.1-1.8,2H217z"/>
	</g>
	<g>
		<rect x="144.8" y="136.2" class="st3" width="28.3" height="15"/>
		<path d="M146,146.3v-8.3h4.4l-0.1,0.9h-3.1v2.8h2.7v0.9h-2.7v3.6H146z"/>
		<path d="M155.5,145.4c0.1,0.1,0.2,0.2,0.4,0.3l-0.3,0.8c-0.3,0-0.6-0.1-0.8-0.3c-0.2-0.1-0.3-0.4-0.4-0.7
			c-0.4,0.6-1.1,0.9-1.9,0.9c-0.6,0-1.1-0.2-1.5-0.5c-0.4-0.4-0.5-0.8-0.5-1.4c0-0.7,0.2-1.2,0.7-1.5c0.5-0.4,1.2-0.5,2.1-0.5h1V142
			c0-0.4-0.1-0.8-0.3-1c-0.2-0.2-0.5-0.3-1-0.3c-0.5,0-1,0.1-1.7,0.3l-0.3-0.8c0.8-0.3,1.5-0.4,2.2-0.4c0.7,0,1.3,0.2,1.7,0.5
			s0.6,0.9,0.6,1.6v2.9C155.4,145.1,155.4,145.3,155.5,145.4z M154.3,144.7v-1.5h-0.8c-1.2,0-1.8,0.4-1.8,1.3c0,0.4,0.1,0.7,0.3,0.9
			c0.2,0.2,0.5,0.3,0.8,0.3C153.4,145.6,153.9,145.3,154.3,144.7z"/>
		<path d="M157.8,146.1c-0.2-0.2-0.4-0.6-0.4-1v-7.6l1.1-0.1v7.7c0,0.2,0,0.3,0.1,0.4c0.1,0.1,0.2,0.1,0.3,0.1c0.2,0,0.3,0,0.4-0.1
			l0.3,0.8c-0.3,0.1-0.6,0.2-0.9,0.2C158.4,146.5,158,146.3,157.8,146.1z"/>
		<path d="M163.9,140c0.3,0.1,0.7,0.3,1,0.5l-0.5,0.7c-0.3-0.2-0.6-0.3-0.8-0.4s-0.5-0.1-0.8-0.1c-0.4,0-0.6,0.1-0.9,0.2
			c-0.2,0.1-0.3,0.4-0.3,0.6s0.1,0.5,0.3,0.6c0.2,0.1,0.5,0.3,1.1,0.4c0.7,0.2,1.2,0.4,1.6,0.7c0.3,0.3,0.5,0.7,0.5,1.2
			c0,0.6-0.2,1.1-0.7,1.4s-1.1,0.5-1.8,0.5c-1,0-1.8-0.3-2.4-0.8l0.6-0.7c0.5,0.4,1.1,0.6,1.8,0.6c0.4,0,0.7-0.1,1-0.3
			c0.2-0.2,0.4-0.4,0.4-0.7c0-0.2,0-0.4-0.1-0.5c-0.1-0.1-0.2-0.2-0.5-0.3c-0.2-0.1-0.5-0.2-0.9-0.3c-0.7-0.2-1.2-0.4-1.5-0.7
			c-0.3-0.3-0.5-0.7-0.5-1.1c0-0.3,0.1-0.6,0.3-0.9c0.2-0.3,0.5-0.5,0.8-0.6c0.3-0.1,0.7-0.2,1.2-0.2
			C163.2,139.9,163.6,139.9,163.9,140z"/>
		<path d="M171.4,143.5h-4c0,0.7,0.2,1.2,0.5,1.5c0.3,0.3,0.7,0.5,1.2,0.5c0.3,0,0.6,0,0.8-0.1c0.3-0.1,0.5-0.2,0.8-0.4l0.5,0.7
			c-0.7,0.5-1.4,0.8-2.2,0.8c-0.9,0-1.6-0.3-2.1-0.9s-0.7-1.4-0.7-2.4c0-0.7,0.1-1.2,0.3-1.7s0.5-0.9,0.9-1.2
			c0.4-0.3,0.9-0.4,1.4-0.4c0.8,0,1.5,0.3,1.9,0.8c0.4,0.6,0.7,1.3,0.7,2.3C171.4,143.2,171.4,143.3,171.4,143.5z M170.3,142.7
			c0-0.6-0.1-1.1-0.4-1.4s-0.6-0.5-1.1-0.5c-0.9,0-1.4,0.7-1.5,2L170.3,142.7L170.3,142.7z"/>
	</g>
	<g>
		<rect x="129.6" y="164" class="st3" width="21.1" height="12.3"/>
		<path d="M135.4,174.6h-4.8v-9.1h4.6v0.8h-3.6v3.1h3.4v0.8h-3.4v3.5h3.8V174.6z"/>
		<path d="M142.1,174.6h-1v-3.9c0-1.1-0.4-2-1.5-2c-0.9,0-1.7,0.7-1.7,1.9v4h-1v-4.9c0-0.7,0-1.2,0-1.7h0.9l0.1,1.1h0
			c0.3-0.6,1.1-1.2,2.1-1.2c0.8,0,2.2,0.5,2.2,2.7V174.6z"/>
		<path d="M149.3,172.9c0,0.5,0,1.2,0,1.6h-0.9l0-1.1h0c-0.3,0.7-1.1,1.3-2.1,1.3c-1.5,0-2.7-1.3-2.7-3.3c0-2.2,1.3-3.5,2.8-3.5
			c1,0,1.6,0.5,1.9,1h0V165h1V172.9z M148.3,170.6c0-1.3-0.9-2-1.8-2c-1.2,0-2,1.2-2,2.7c0,1.4,0.6,2.6,1.9,2.6c1.1,0,1.8-0.9,1.8-2
			V170.6z"/>
	</g>
</g>
<g>
</g>
<g>
</g>
<g>
</g>
<g>
</g>
<g>
</g>
<g>
</g>
<g>
</g>
<g>
</g>
<g>
</g>
<g>
</g>
<g>
</g>
<g>
</g>
<g>
</g>
<g>
</g>
<g>
</g>
<g>
</g>
</svg>
